<svg width="20" height="20" viewBox="0 0 20 20" fill="none" xmlns="http://www.w3.org/2000/svg">
<path d="M18.3337 10.0002C18.3337 6.85766 18.3337 5.286 17.357 4.31016C16.3803 3.33433 14.8095 3.3335 11.667 3.3335H8.33366C5.19116 3.3335 3.61949 3.3335 2.64366 4.31016C1.66783 5.28683 1.66699 6.85766 1.66699 10.0002C1.66699 13.1427 1.66699 14.7143 2.64366 15.6902C3.62033 16.666 5.19116 16.6668 8.33366 16.6668H11.667C14.8095 16.6668 16.3812 16.6668 17.357 15.6902C17.902 15.146 18.1428 14.4168 18.2487 13.3335M8.33366 13.3335H5.00033M11.667 13.3335H10.417M1.66699 8.3335H5.83366M18.3337 8.3335H9.16699" stroke="black" stroke-width="1.25" stroke-linecap="round"/>
</svg>
