<svg width="36" height="36" viewBox="0 0 36 36" fill="none" xmlns="http://www.w3.org/2000/svg">
<path fill-rule="evenodd" clip-rule="evenodd" d="M11.397 6.7305C11.7975 4.7655 13.5465 3.375 15.549 3.375H20.451C22.4535 3.375 24.201 4.7655 24.603 6.7305C24.6473 6.94688 24.7631 7.14206 24.9318 7.28463C25.1005 7.4272 25.3123 7.50887 25.533 7.5165H25.5825C27.687 7.6095 29.304 7.8675 30.654 8.754C31.5045 9.312 32.2365 10.029 32.8065 10.8675C33.516 11.9085 33.828 13.1055 33.978 14.5515C34.125 15.966 34.125 17.7375 34.125 19.9815V20.109C34.125 22.353 34.125 24.126 33.978 25.539C33.828 26.985 33.516 28.182 32.8065 29.2245C32.2334 30.0624 31.5022 30.7803 30.654 31.338C29.5995 32.0295 28.389 32.3355 26.922 32.481C25.485 32.625 23.6835 32.625 21.3945 32.625H14.6055C12.3165 32.625 10.515 32.625 9.078 32.481C7.611 32.3355 6.4005 32.031 5.346 31.338C4.49766 30.7798 3.76648 30.0614 3.1935 29.223C2.484 28.182 2.172 26.985 2.022 25.539C1.875 24.126 1.875 22.353 1.875 20.109V19.9815C1.875 17.7375 1.875 15.966 2.022 14.5515C2.172 13.1055 2.484 11.9085 3.1935 10.8675C3.76648 10.0291 4.49766 9.31066 5.346 8.7525C6.696 7.8675 8.313 7.6095 10.4175 7.518L10.443 7.5165H10.467C10.6877 7.50887 10.8995 7.4272 11.0682 7.28463C11.2369 7.14206 11.3527 6.94688 11.397 6.7305ZM15.549 5.625C14.589 5.625 13.7835 6.2895 13.602 7.179C13.3095 8.619 12.0315 9.753 10.494 9.7665C8.472 9.8565 7.389 10.104 6.579 10.635C5.97817 11.0309 5.46006 11.5398 5.0535 12.1335C4.6395 12.741 4.3905 13.5195 4.2585 14.784C4.1265 16.068 4.125 17.724 4.125 20.046C4.125 22.368 4.125 24.0225 4.26 25.3065C4.3905 26.571 4.6395 27.3495 5.055 27.9585C5.457 28.5495 5.9745 29.0595 6.5805 29.457C7.206 29.8665 8.007 30.114 9.3015 30.243C10.6125 30.3735 12.3015 30.375 14.667 30.375H21.333C23.697 30.375 25.386 30.375 26.6985 30.243C27.993 30.114 28.794 29.868 29.4195 29.457C30.0255 29.0595 30.5445 28.5495 30.9465 27.957C31.3605 27.3495 31.6095 26.571 31.7415 25.3065C31.8735 24.0225 31.875 22.3665 31.875 20.046C31.875 17.7255 31.875 16.068 31.74 14.784C31.6095 13.5195 31.3605 12.741 30.945 12.1335C30.5386 11.5393 30.0205 11.0298 29.4195 10.6335C28.6125 10.104 27.5295 9.8565 25.5045 9.7665C23.9685 9.7515 22.6905 8.6205 22.398 7.179C22.302 6.73541 22.0559 6.33854 21.7011 6.05541C21.3464 5.77229 20.9048 5.62026 20.451 5.625H15.549ZM18 16.125C17.1049 16.125 16.2465 16.4806 15.6135 17.1135C14.9806 17.7465 14.625 18.6049 14.625 19.5C14.625 20.3951 14.9806 21.2535 15.6135 21.8865C16.2465 22.5194 17.1049 22.875 18 22.875C18.8951 22.875 19.7535 22.5194 20.3865 21.8865C21.0194 21.2535 21.375 20.3951 21.375 19.5C21.375 18.6049 21.0194 17.7465 20.3865 17.1135C19.7535 16.4806 18.8951 16.125 18 16.125ZM12.375 19.5C12.375 18.0082 12.9676 16.5774 14.0225 15.5225C15.0774 14.4676 16.5082 13.875 18 13.875C19.4918 13.875 20.9226 14.4676 21.9775 15.5225C23.0324 16.5774 23.625 18.0082 23.625 19.5C23.625 20.9918 23.0324 22.4226 21.9775 23.4775C20.9226 24.5324 19.4918 25.125 18 25.125C16.5082 25.125 15.0774 24.5324 14.0225 23.4775C12.9676 22.4226 12.375 20.9918 12.375 19.5ZM25.875 15C25.875 14.7016 25.9935 14.4155 26.2045 14.2045C26.4155 13.9935 26.7016 13.875 27 13.875H28.5C28.7984 13.875 29.0845 13.9935 29.2955 14.2045C29.5065 14.4155 29.625 14.7016 29.625 15C29.625 15.2984 29.5065 15.5845 29.2955 15.7955C29.0845 16.0065 28.7984 16.125 28.5 16.125H27C26.7016 16.125 26.4155 16.0065 26.2045 15.7955C25.9935 15.5845 25.875 15.2984 25.875 15Z" fill="#07C355"/>
</svg>
