<svg width="12" height="12" viewBox="0 0 12 12" fill="none" xmlns="http://www.w3.org/2000/svg">
<path d="M4 5H8M3.5 7H4M8 7H8.5" stroke="#929292" stroke-width="0.75" stroke-linecap="round" stroke-linejoin="round"/>
<path d="M1.5 9V5.705C1.5001 5.5697 1.52766 5.43584 1.581 5.3115L2.7405 2.6065C2.81752 2.42656 2.94565 2.27318 3.10901 2.16537C3.27237 2.05756 3.46377 2.00006 3.6595 2H8.3405C8.53617 2.00002 8.72754 2.05745 8.89089 2.16517C9.05424 2.27288 9.18241 2.42616 9.2595 2.606L10.4195 5.311C10.4728 5.43568 10.5002 5.5699 10.5 5.7055V9M1.5 9V10.2C1.5 10.2796 1.53161 10.3559 1.58787 10.4121C1.64413 10.4684 1.72044 10.5 1.8 10.5H3.2C3.27956 10.5 3.35587 10.4684 3.41213 10.4121C3.46839 10.3559 3.5 10.2796 3.5 10.2V9M1.5 9H3.5M10.5 9V10.2C10.5 10.2796 10.4684 10.3559 10.4121 10.4121C10.3559 10.4684 10.2796 10.5 10.2 10.5H8.8C8.7606 10.5 8.72159 10.4922 8.68519 10.4772C8.6488 10.4621 8.61573 10.44 8.58787 10.4121C8.56001 10.3843 8.53791 10.3512 8.52284 10.3148C8.50776 10.2784 8.5 10.2394 8.5 10.2V9M10.5 9H8.5M3.5 9H8.5" stroke="#929292" stroke-width="0.75"/>
</svg>
