<svg width="44" height="28" viewBox="0 0 44 28" fill="none" xmlns="http://www.w3.org/2000/svg">
<g opacity="0.9">
<g filter="url(#filter0_di_526_55468)">
<path d="M30.739 2.50939C36.5494 2.64731 41.1505 7.47338 41.0138 13.2914C40.877 19.1095 36.0542 23.7127 30.2437 23.5748C24.4332 23.4368 19.8321 18.6099 19.9689 12.7918C20.1058 6.97387 24.9286 2.37152 30.739 2.50939Z" stroke="black" stroke-opacity="0.01" stroke-width="2.65185"/>
</g>
<g style="mix-blend-mode:overlay" opacity="0.3" filter="url(#filter1_f_526_55468)">
<path d="M30.7494 2.06713C36.8042 2.21085 41.5985 7.24019 41.4561 13.3019C41.3135 19.3636 36.2882 24.1598 30.2333 24.016C24.1784 23.8723 19.3841 18.8431 19.5266 12.7813C19.6693 6.71969 24.6946 1.92346 30.7494 2.06713Z" stroke="url(#paint0_linear_526_55468)" stroke-width="1.7679"/>
</g>
<g filter="url(#filter2_di_526_55468)">
<path d="M12.9831 2.213C18.7936 2.35092 23.3946 7.17699 23.258 12.995C23.1212 18.8131 18.2984 23.4163 12.4878 23.2784C6.67733 23.1404 2.07622 18.3135 2.21301 12.4954C2.34995 6.67748 7.17271 2.07513 12.9831 2.213Z" stroke="black" stroke-opacity="0.01" stroke-width="2.65185"/>
</g>
<g style="mix-blend-mode:overlay" opacity="0.3" filter="url(#filter3_f_526_55468)">
<path d="M12.9935 1.77074C19.0483 1.91446 23.8426 6.94381 23.7002 13.0055C23.5577 19.0673 18.5324 23.8634 12.4774 23.7197C6.42258 23.5759 1.62823 18.5467 1.77075 12.4849C1.91342 6.42331 6.93873 1.62707 12.9935 1.77074Z" stroke="url(#paint1_linear_526_55468)" stroke-width="1.7679"/>
</g>
</g>
<defs>
<filter id="filter0_di_526_55468" x="17.7557" y="1.18018" width="27.2389" height="26.375" filterUnits="userSpaceOnUse" color-interpolation-filters="sRGB">
<feFlood flood-opacity="0" result="BackgroundImageFix"/>
<feColorMatrix in="SourceAlpha" type="matrix" values="0 0 0 0 0 0 0 0 0 0 0 0 0 0 0 0 0 0 127 0" result="hardAlpha"/>
<feOffset dy="1.7679"/>
<feGaussianBlur stdDeviation="0.441976"/>
<feColorMatrix type="matrix" values="0 0 0 0 0.287986 0 0 0 0 0.475698 0 0 0 0 0.595833 0 0 0 0.3 0"/>
<feBlend mode="multiply" in2="BackgroundImageFix" result="effect1_dropShadow_526_55468"/>
<feBlend mode="normal" in="SourceGraphic" in2="effect1_dropShadow_526_55468" result="shape"/>
<feColorMatrix in="SourceAlpha" type="matrix" values="0 0 0 0 0 0 0 0 0 0 0 0 0 0 0 0 0 0 127 0" result="hardAlpha"/>
<feOffset dx="3.5358" dy="3.5358"/>
<feGaussianBlur stdDeviation="1.32593"/>
<feComposite in2="hardAlpha" operator="arithmetic" k2="-1" k3="1"/>
<feColorMatrix type="matrix" values="0 0 0 0 1 0 0 0 0 1 0 0 0 0 1 0 0 0 0.25 0"/>
<feBlend mode="normal" in2="shape" result="effect2_innerShadow_526_55468"/>
</filter>
<filter id="filter1_f_526_55468" x="17.7557" y="0.296225" width="25.471" height="25.491" filterUnits="userSpaceOnUse" color-interpolation-filters="sRGB">
<feFlood flood-opacity="0" result="BackgroundImageFix"/>
<feBlend mode="normal" in="SourceGraphic" in2="BackgroundImageFix" result="shape"/>
<feGaussianBlur stdDeviation="0.441976" result="effect1_foregroundBlur_526_55468"/>
</filter>
<filter id="filter2_di_526_55468" x="-0.000162184" y="0.883789" width="27.2389" height="26.375" filterUnits="userSpaceOnUse" color-interpolation-filters="sRGB">
<feFlood flood-opacity="0" result="BackgroundImageFix"/>
<feColorMatrix in="SourceAlpha" type="matrix" values="0 0 0 0 0 0 0 0 0 0 0 0 0 0 0 0 0 0 127 0" result="hardAlpha"/>
<feOffset dy="1.7679"/>
<feGaussianBlur stdDeviation="0.441976"/>
<feColorMatrix type="matrix" values="0 0 0 0 0.287986 0 0 0 0 0.475698 0 0 0 0 0.595833 0 0 0 0.3 0"/>
<feBlend mode="multiply" in2="BackgroundImageFix" result="effect1_dropShadow_526_55468"/>
<feBlend mode="normal" in="SourceGraphic" in2="effect1_dropShadow_526_55468" result="shape"/>
<feColorMatrix in="SourceAlpha" type="matrix" values="0 0 0 0 0 0 0 0 0 0 0 0 0 0 0 0 0 0 127 0" result="hardAlpha"/>
<feOffset dx="3.5358" dy="3.5358"/>
<feGaussianBlur stdDeviation="1.32593"/>
<feComposite in2="hardAlpha" operator="arithmetic" k2="-1" k3="1"/>
<feColorMatrix type="matrix" values="0 0 0 0 1 0 0 0 0 1 0 0 0 0 1 0 0 0 0.25 0"/>
<feBlend mode="normal" in2="shape" result="effect2_innerShadow_526_55468"/>
</filter>
<filter id="filter3_f_526_55468" x="-0.000162184" y="-0.000162184" width="25.471" height="25.491" filterUnits="userSpaceOnUse" color-interpolation-filters="sRGB">
<feFlood flood-opacity="0" result="BackgroundImageFix"/>
<feBlend mode="normal" in="SourceGraphic" in2="BackgroundImageFix" result="shape"/>
<feGaussianBlur stdDeviation="0.441976" result="effect1_foregroundBlur_526_55468"/>
</filter>
<linearGradient id="paint0_linear_526_55468" x1="21.1337" y1="5.65828" x2="40.3045" y2="25.2748" gradientUnits="userSpaceOnUse">
<stop stop-color="white"/>
<stop offset="1" stop-color="white" stop-opacity="0"/>
</linearGradient>
<linearGradient id="paint1_linear_526_55468" x1="3.3778" y1="5.36189" x2="22.5486" y2="24.9785" gradientUnits="userSpaceOnUse">
<stop stop-color="white"/>
<stop offset="1" stop-color="white" stop-opacity="0"/>
</linearGradient>
</defs>
</svg>
