<svg width="48" height="48" viewBox="0 0 48 48" fill="none" xmlns="http://www.w3.org/2000/svg">
<rect width="48" height="48" rx="24" fill="#E6F9EE"/>
<path d="M23.68 26.2218L17.0744 25.453C16.6833 25.4115 16.4326 25.2041 16.3222 24.8307C16.2118 24.4574 16.3018 24.1418 16.5922 23.8841L27.4622 14.1285C27.5118 14.0781 27.5692 14.0407 27.6344 14.0163C27.6996 13.9911 27.7937 13.9785 27.9167 13.9785C28.1167 13.9785 28.2744 14.0648 28.39 14.2374C28.5055 14.41 28.5067 14.5915 28.3933 14.7818L24.2567 21.7985L30.9044 22.5674C31.2955 22.6089 31.55 22.8126 31.6678 23.1785C31.7855 23.5444 31.6989 23.8567 31.4078 24.1152L20.5378 33.893C20.4881 33.9426 20.4307 33.9763 20.3655 33.9941C20.3004 34.0118 20.2063 34.0207 20.0833 34.0207C19.8833 34.0207 19.7326 33.9348 19.6311 33.763C19.5296 33.5911 19.5285 33.4167 19.6278 33.2396L23.68 26.2218Z" fill="#07C355"/>
</svg>
