<svg width="32" height="32" viewBox="0 0 32 32" fill="none" xmlns="http://www.w3.org/2000/svg">
<rect width="32" height="32" rx="16" fill="#07C355"/>
<path d="M15.7805 17.5238L11.2509 16.9966C10.9827 16.9682 10.8108 16.8259 10.7351 16.5699C10.6594 16.3139 10.7212 16.0976 10.9203 15.9208L18.374 9.23128C18.408 9.19674 18.4474 9.17108 18.4921 9.15432C18.5368 9.13705 18.6013 9.12842 18.6856 9.12842C18.8227 9.12842 18.9309 9.18759 19.0102 9.30594C19.0894 9.42429 19.0902 9.54874 19.0125 9.67928L16.1759 14.4907L20.7344 15.0179C21.0026 15.0464 21.177 15.1861 21.2578 15.437C21.3386 15.6879 21.2791 15.902 21.0795 16.0793L13.6258 22.784C13.5918 22.8181 13.5524 22.8412 13.5077 22.8534C13.463 22.8656 13.3985 22.8717 13.3142 22.8717C13.177 22.8717 13.0737 22.8127 13.0041 22.6949C12.9345 22.5771 12.9337 22.4574 13.0018 22.336L15.7805 17.5238Z" fill="white"/>
</svg>
