<svg width="266" height="266" viewBox="0 0 266 266" fill="none" xmlns="http://www.w3.org/2000/svg">
<path fill-rule="evenodd" clip-rule="evenodd" d="M59.2856 14.4773C59.2856 12.5471 57.7168 10.9819 55.7868 11.0002C51.3489 11.0421 47.5467 11.1486 44.2414 11.4187C38.7103 11.8706 34.2641 12.7978 30.2813 14.8272C23.6274 18.2175 18.2175 23.6274 14.8272 30.2813C12.7978 34.2641 11.8706 38.7103 11.4187 44.2414C11.1486 47.5467 11.0421 51.3488 11.0002 55.7867C10.9819 57.7168 12.5471 59.2856 14.4773 59.2856C16.3984 59.2856 17.9553 57.7308 17.9735 55.8097C18.0145 51.4875 18.1162 47.8979 18.3685 44.8092C18.7852 39.7093 19.5951 36.283 21.0401 33.447C23.762 28.1051 28.1051 23.762 33.447 21.0401C36.283 19.5951 39.7093 18.7852 44.8092 18.3685C47.8979 18.1162 51.4875 18.0145 55.8097 17.9735C57.7308 17.9553 59.2856 16.3984 59.2856 14.4773ZM210.19 17.9735C208.269 17.9553 206.714 16.3984 206.714 14.4773C206.714 12.5471 208.283 10.9819 210.213 11.0002C214.651 11.0421 218.453 11.1486 221.759 11.4187C227.29 11.8706 231.736 12.7978 235.719 14.8272C242.373 18.2175 247.782 23.6274 251.173 30.2813C253.202 34.2641 254.129 38.7103 254.581 44.2414C254.851 47.5467 254.958 51.3489 255 55.7867C255.018 57.7168 253.453 59.2856 251.523 59.2856C249.602 59.2856 248.045 57.7308 248.027 55.8097C247.986 51.4875 247.884 47.8979 247.631 44.8092C247.215 39.7093 246.405 36.283 244.96 33.447C242.238 28.1051 237.895 23.762 232.553 21.0401C229.717 19.5951 226.291 18.7852 221.191 18.3685C218.102 18.1162 214.513 18.0145 210.19 17.9735ZM206.714 251.523C206.714 249.602 208.269 248.045 210.19 248.027C214.513 247.986 218.102 247.884 221.191 247.631C226.291 247.215 229.717 246.405 232.553 244.96C237.895 242.238 242.238 237.895 244.96 232.553C246.405 229.717 247.215 226.291 247.631 221.191C247.884 218.102 247.986 214.513 248.027 210.19C248.045 208.269 249.602 206.714 251.523 206.714C253.453 206.714 255.018 208.283 255 210.213C254.958 214.651 254.851 218.453 254.581 221.759C254.129 227.29 253.202 231.736 251.173 235.719C247.782 242.373 242.373 247.782 235.719 251.173C231.736 253.202 227.29 254.129 221.759 254.581C218.453 254.851 214.651 254.958 210.213 255C208.283 255.018 206.714 253.453 206.714 251.523ZM14.4773 206.714C16.3984 206.714 17.9553 208.269 17.9735 210.19C18.0145 214.513 18.1162 218.102 18.3685 221.191C18.7852 226.291 19.5951 229.717 21.0401 232.553C23.762 237.895 28.1051 242.238 33.447 244.96C36.283 246.405 39.7093 247.215 44.8092 247.631C47.8979 247.884 51.4875 247.986 55.8097 248.027C57.7308 248.045 59.2856 249.602 59.2856 251.523C59.2856 253.453 57.7168 255.018 55.7868 255C51.3489 254.958 47.5467 254.851 44.2414 254.581C38.7103 254.129 34.2641 253.202 30.2813 251.173C23.6274 247.782 18.2175 242.373 14.8272 235.719C12.7978 231.736 11.8706 227.29 11.4187 221.759C11.1486 218.453 11.0421 214.651 11.0002 210.213C10.9819 208.283 12.5471 206.714 14.4773 206.714Z" fill="white"/>
</svg>
