<svg width="39" height="45" viewBox="0 0 39 45" fill="none" xmlns="http://www.w3.org/2000/svg">
<g filter="url(#filter0_f_650_55134)">
<ellipse cx="19.3651" cy="40.6347" rx="5.39682" ry="1.90476" fill="#07C355" fill-opacity="0.1"/>
</g>
<g filter="url(#filter1_d_650_55134)">
<path fill-rule="evenodd" clip-rule="evenodd" d="M19.3651 2.53955C28.3068 2.53955 35.5556 9.78827 35.5556 18.73C35.5556 25.5861 31.2941 31.4468 25.2754 33.8078L20.2871 40.6262C20.1831 40.769 20.045 40.8855 19.8845 40.9659C19.724 41.0463 19.5458 41.0883 19.3649 41.0883C19.184 41.0883 19.0058 41.0463 18.8453 40.9659C18.6848 40.8855 18.5467 40.769 18.4427 40.6262L13.4543 33.8076C7.43587 31.4464 3.17461 25.5859 3.17461 18.73C3.17461 9.78827 10.4233 2.53955 19.3651 2.53955Z" fill="white"/>
</g>
<path d="M33.0159 18.7299C33.0159 11.1908 26.9042 5.0791 19.3651 5.0791C11.826 5.0791 5.71429 11.1908 5.71429 18.7299C5.71429 26.269 11.826 32.3807 19.3651 32.3807C26.9042 32.3807 33.0159 26.269 33.0159 18.7299Z" fill="#07C355"/>
<path d="M15.7994 17.566L10.7666 16.9802C10.4686 16.9486 10.2776 16.7906 10.1935 16.5062C10.1094 16.2217 10.178 15.9813 10.3992 15.7849L18.6811 8.35208C18.7189 8.3137 18.7626 8.2852 18.8123 8.26658C18.862 8.24739 18.9337 8.23779 19.0273 8.23779C19.1797 8.23779 19.2999 8.30354 19.388 8.43504C19.476 8.56654 19.4769 8.70481 19.3905 8.84986L16.2388 14.1959L21.3037 14.7817C21.6017 14.8133 21.7956 14.9685 21.8853 15.2473C21.9751 15.5261 21.909 15.764 21.6872 15.961L13.4053 23.4107C13.3675 23.4485 13.3238 23.4742 13.2741 23.4877C13.2244 23.5013 13.1528 23.5081 13.0591 23.5081C12.9067 23.5081 12.7919 23.4426 12.7145 23.3117C12.6372 23.1807 12.6364 23.0478 12.712 22.9129L15.7994 17.566Z" fill="white"/>
<path d="M22.7835 22.6451L17.7507 22.0593C17.4527 22.0277 17.2617 21.8697 17.1776 21.5853C17.0935 21.3008 17.1621 21.0604 17.3833 20.864L25.6652 13.4312C25.703 13.3928 25.7468 13.3643 25.7964 13.3457C25.8461 13.3265 25.9178 13.3169 26.0115 13.3169C26.1638 13.3169 26.284 13.3826 26.3721 13.5141C26.4601 13.6456 26.461 13.7839 26.3746 13.929L23.2229 19.275L28.2879 19.8608C28.5858 19.8924 28.7797 20.0476 28.8694 20.3264C28.9592 20.6052 28.8931 20.8431 28.6713 21.0401L20.3894 28.4898C20.3516 28.5276 20.3079 28.5533 20.2582 28.5668C20.2086 28.5804 20.1369 28.5872 20.0432 28.5872C19.8908 28.5872 19.776 28.5217 19.6987 28.3908C19.6213 28.2598 19.6205 28.1269 19.6961 27.992L22.7835 22.6451Z" fill="white"/>
<defs>
<filter id="filter0_f_650_55134" x="12.6984" y="37.4601" width="13.3333" height="6.34925" filterUnits="userSpaceOnUse" color-interpolation-filters="sRGB">
<feFlood flood-opacity="0" result="BackgroundImageFix"/>
<feBlend mode="normal" in="SourceGraphic" in2="BackgroundImageFix" result="shape"/>
<feGaussianBlur stdDeviation="0.634921" result="effect1_foregroundBlur_650_55134"/>
</filter>
<filter id="filter1_d_650_55134" x="3.33786e-06" y="-0.000131607" width="38.7302" height="44.898" filterUnits="userSpaceOnUse" color-interpolation-filters="sRGB">
<feFlood flood-opacity="0" result="BackgroundImageFix"/>
<feColorMatrix in="SourceAlpha" type="matrix" values="0 0 0 0 0 0 0 0 0 0 0 0 0 0 0 0 0 0 127 0" result="hardAlpha"/>
<feOffset dy="0.634921"/>
<feGaussianBlur stdDeviation="1.5873"/>
<feComposite in2="hardAlpha" operator="out"/>
<feColorMatrix type="matrix" values="0 0 0 0 0 0 0 0 0 0 0 0 0 0 0 0 0 0 0.1 0"/>
<feBlend mode="normal" in2="BackgroundImageFix" result="effect1_dropShadow_650_55134"/>
<feBlend mode="normal" in="SourceGraphic" in2="effect1_dropShadow_650_55134" result="shape"/>
</filter>
</defs>
</svg>
