<svg width="33" height="33" viewBox="0 0 33 33" fill="none" xmlns="http://www.w3.org/2000/svg">
<path d="M32.1904 16.1904C32.1904 7.35387 25.027 0.19043 16.1904 0.19043C7.35387 0.19043 0.19043 7.35387 0.19043 16.1904C0.19043 25.027 7.35387 32.1904 16.1904 32.1904C25.027 32.1904 32.1904 25.027 32.1904 16.1904Z" fill="#07C355"/>
<path d="M12.8209 15.0183L8.06491 14.4647C7.78331 14.4349 7.60277 14.2855 7.52331 14.0167C7.44384 13.7479 7.50864 13.5207 7.71771 13.3351L15.5441 6.31112C15.5798 6.27486 15.6212 6.24793 15.6681 6.23033C15.715 6.21219 15.7828 6.20312 15.8713 6.20312C16.0153 6.20312 16.1289 6.26526 16.2121 6.38953C16.2953 6.51379 16.2961 6.64446 16.2145 6.78152L13.2361 11.8335L18.0225 12.3871C18.3041 12.417 18.4873 12.5637 18.5721 12.8271C18.6569 13.0906 18.5945 13.3154 18.3849 13.5015L10.5585 20.5415C10.5228 20.5773 10.4814 20.6015 10.4345 20.6143C10.3876 20.6271 10.3198 20.6335 10.2313 20.6335C10.0873 20.6335 9.97877 20.5717 9.90571 20.4479C9.83264 20.3242 9.83184 20.1986 9.90331 20.0711L12.8209 15.0183Z" fill="white"/>
<path d="M19.4212 20.8181L14.6652 20.2645C14.3836 20.2347 14.2031 20.0853 14.1236 19.8165C14.0442 19.5477 14.109 19.3205 14.318 19.1349L22.1444 12.1109C22.1802 12.0747 22.2215 12.0477 22.2684 12.0301C22.3154 12.012 22.3831 12.0029 22.4716 12.0029C22.6156 12.0029 22.7292 12.0651 22.8124 12.1893C22.8956 12.3136 22.8964 12.4443 22.8148 12.5813L19.8364 17.6333L24.6228 18.1869C24.9044 18.2168 25.0876 18.3635 25.1724 18.6269C25.2572 18.8904 25.1948 19.1152 24.9852 19.3013L17.1588 26.3413C17.1231 26.3771 17.0818 26.4013 17.0348 26.4141C16.9879 26.4269 16.9202 26.4333 16.8317 26.4333C16.6876 26.4333 16.5791 26.3715 16.506 26.2477C16.433 26.124 16.4322 25.9984 16.5036 25.8709L19.4212 20.8181Z" fill="white"/>
</svg>
