<svg width="31" height="31" viewBox="0 0 31 31" fill="none" xmlns="http://www.w3.org/2000/svg">
<rect width="31" height="31" rx="15.5" fill="#07C355"/>
<path fill-rule="evenodd" clip-rule="evenodd" d="M23.151 10.2843C23.227 10.3998 23.2609 10.5379 23.2469 10.6755C23.2329 10.813 23.1719 10.9415 23.0741 11.0393L15.7145 18.3988C15.6392 18.474 15.5453 18.5279 15.4423 18.5549L12.377 19.3556C12.2756 19.382 12.1691 19.3815 12.0681 19.354C11.967 19.3266 11.8749 19.2732 11.8009 19.1991C11.7268 19.1251 11.6734 19.0329 11.646 18.9319C11.6185 18.8308 11.618 18.7243 11.6444 18.623L12.445 15.5581C12.4689 15.4663 12.513 15.381 12.5739 15.3083L19.9607 7.92561C20.0733 7.81316 20.2259 7.75 20.385 7.75C20.5441 7.75 20.6967 7.81316 20.8093 7.92561L23.0741 10.1898C23.1021 10.2193 23.1278 10.2509 23.151 10.2843ZM21.8004 10.6142L20.385 9.19943L13.5658 16.0193L13.0654 17.9352L14.9812 17.4348L21.8004 10.6142Z" fill="white"/>
<path d="M21.7722 19.7286C21.9965 17.8142 22.0682 15.8851 21.9864 13.9594C21.9845 13.914 21.992 13.8687 22.0085 13.8264C22.0251 13.7841 22.0502 13.7456 22.0824 13.7135L22.8902 12.9071C22.9122 12.885 22.9402 12.8697 22.9708 12.863C23.0014 12.8564 23.0333 12.8587 23.0626 12.8697C23.0919 12.8807 23.1174 12.8999 23.136 12.925C23.1546 12.9501 23.1656 12.98 23.1676 13.0112C23.3192 15.2986 23.2615 17.5951 22.9952 19.872C22.8015 21.529 21.4684 22.8279 19.8161 23.0123C16.9475 23.3292 14.0526 23.3292 11.184 23.0123C9.53242 22.8279 8.19853 21.529 8.00481 19.872C7.66506 16.9672 7.66506 14.0328 8.00481 11.128C8.19853 9.47102 9.53159 8.17213 11.184 7.98774C13.3612 7.74767 15.5548 7.68928 17.7418 7.81319C17.7731 7.81543 17.8031 7.82658 17.8282 7.84532C17.8534 7.86406 17.8726 7.8896 17.8836 7.91892C17.8947 7.94824 17.8971 7.98011 17.8906 8.01075C17.8841 8.04139 17.8689 8.06952 17.8468 8.09182L17.0317 8.90475C16.9999 8.93659 16.9618 8.96153 16.9198 8.97802C16.8779 8.99452 16.833 9.00221 16.7879 9.00063C14.963 8.93823 13.1359 9.00807 11.3211 9.2096C10.7907 9.2682 10.2957 9.50357 9.91588 9.87769C9.53607 10.2518 9.29369 10.7428 9.22788 11.2714C8.8986 14.0809 8.8986 16.9191 9.22788 19.7286C9.29369 20.2572 9.53607 20.7482 9.91588 21.1223C10.2957 21.4965 10.7907 21.7318 11.3211 21.7904C14.075 22.0977 16.925 22.0977 19.6798 21.7904C20.2101 21.7318 20.7052 21.4965 21.085 21.1223C21.4648 20.7482 21.7063 20.2572 21.7722 19.7286Z" fill="white"/>
</svg>
