<svg width="24" height="31" viewBox="0 0 24 31" fill="none" xmlns="http://www.w3.org/2000/svg">
<path d="M11.5063 18.8499L1.23997 17.6661C0.632105 17.6023 0.242404 17.2829 0.0708662 16.7082C-0.100671 16.1334 0.0392067 15.6475 0.4905 15.2507L17.3846 0.230941C17.4618 0.15339 17.551 0.095798 17.6523 0.0581632C17.7536 0.0193879 17.8998 0 18.0909 0C18.4018 0 18.647 0.132862 18.8266 0.398587C19.0062 0.664312 19.0079 0.943722 18.8318 1.23682L12.4026 12.0397L22.7345 13.2235C23.3424 13.2874 23.7379 13.601 23.9209 14.1644C24.104 14.7278 23.9693 15.2085 23.5168 15.6065L6.62268 30.6604C6.54554 30.7368 6.45632 30.7887 6.35501 30.8161C6.2537 30.8435 6.10749 30.8571 5.91638 30.8571C5.60554 30.8571 5.37126 30.7249 5.21354 30.4603C5.05582 30.1957 5.05409 29.9271 5.20836 29.6545L11.5063 18.8499Z" fill="#07C355"/>
</svg>
