<svg width="24" height="24" viewBox="0 0 24 24" fill="none" xmlns="http://www.w3.org/2000/svg">
<path d="M1.96336 6.30701C1.74958 6.6618 1.86389 7.12271 2.21868 7.33649C2.57346 7.55026 3.03437 7.43595 3.24815 7.08117L1.96336 6.30701ZM2.5879 15.8196C2.43 15.4366 1.99156 15.2542 1.60863 15.4121C1.22569 15.57 1.04326 16.0085 1.20116 16.3914L2.5879 15.8196ZM11.6058 2.35547C16.9905 2.35547 21.3558 6.7207 21.3558 12.1055H22.8558C22.8558 5.89227 17.819 0.855469 11.6058 0.855469V2.35547ZM21.3558 12.1055C21.3558 17.4903 16.9905 21.8555 11.6058 21.8555V23.3555C17.819 23.3555 22.8558 18.3187 22.8558 12.1055H21.3558ZM3.24815 7.08117C4.95544 4.24777 8.05998 2.35547 11.6058 2.35547V0.855469C7.51256 0.855468 3.93077 3.04192 1.96336 6.30701L3.24815 7.08117ZM11.6058 21.8555C7.53732 21.8555 4.04917 19.3634 2.5879 15.8196L1.20116 16.3914C2.88598 20.4773 6.90887 23.3555 11.6058 23.3555V21.8555Z" fill="#B6B6B6"/>
<path d="M2.10477 4.10547V7.10547L5.00342 6.62236" stroke="#B6B6B6" stroke-width="1.5" stroke-linecap="round" stroke-linejoin="round"/>
<path d="M15 11.5L11 13.5V7" stroke="#B6B6B6" stroke-width="1.5" stroke-linecap="round" stroke-linejoin="round"/>
</svg>
