<?xml version="1.0" encoding="utf-8"?>
<!-- Generator: Adobe Illustrator 26.5.0, SVG Export Plug-In . SVG Version: 6.00 Build 0)  -->
<svg version="1.1" id="Layer_1" xmlns="http://www.w3.org/2000/svg" xmlns:xlink="http://www.w3.org/1999/xlink" x="0px" y="0px"
	 viewBox="0 0 415.4 79.4" style="enable-background:new 0 0 415.4 79.4;" xml:space="preserve">
<style type="text/css">
	.st0{fill:#061818;}
	.st1{fill:#3EB657;}
	.st2{filter:url(#Adobe_OpacityMaskFilter);}
	
		.st3{clip-path:url(#SVGID_00000111187191039221012580000015832320751628294534_);fill:url(#SVGID_00000088822495042623487560000007813930036337848988_);}
	
		.st4{clip-path:url(#SVGID_00000111187191039221012580000015832320751628294534_);mask:url(#SVGID_00000046331015596054761560000000362926823075905975_);fill:url(#SVGID_00000138543866903652423260000018074026473446056879_);}
	.st5{filter:url(#Adobe_OpacityMaskFilter_00000010277933685636917710000004391400696170565278_);}
	
		.st6{clip-path:url(#SVGID_00000161621882784185548830000000268510447796440226_);fill:url(#SVGID_00000004541877999589040150000008991708059432347267_);}
	
		.st7{clip-path:url(#SVGID_00000161621882784185548830000000268510447796440226_);mask:url(#SVGID_00000049937417685013762370000011380941783228571066_);fill:url(#SVGID_00000030469889595240154980000000910185021862141315_);}
	.st8{filter:url(#Adobe_OpacityMaskFilter_00000141456636367096649060000009939111231636503712_);}
	
		.st9{clip-path:url(#SVGID_00000030451638982230524520000004695156794646775961_);fill:url(#SVGID_00000095312269478086058220000018245427288556693675_);}
	
		.st10{clip-path:url(#SVGID_00000030451638982230524520000004695156794646775961_);mask:url(#SVGID_00000152256654026815450710000005280275144643602109_);fill:url(#SVGID_00000025434139227382113660000015259584381890571413_);}
	.st11{fill:none;stroke:#3EB657;stroke-width:0.737;stroke-miterlimit:10;}
</style>
<g>
	<polygon class="st0" points="133,11 119.6,43.8 119,43.8 105.5,11 89.6,11 89.6,64 102.1,64 102.1,31.3 102.5,31.3 115.3,63.7 
		123.2,63.7 136,31.5 136.4,31.5 136.4,64 148.9,64 148.9,11 	"/>
	<path class="st0" d="M190.3,47.2V44c0-4.4-0.8-8.1-2.5-11.1c-1.6-3-3.9-5.3-6.8-6.9c-2.9-1.6-6.2-2.3-10-2.3c-4,0-7.5,0.9-10.4,2.6
		c-3,1.7-5.2,4.1-6.9,7.2c-1.6,3.1-2.4,6.7-2.4,10.8c0,6.4,1.8,11.4,5.4,15c3.6,3.6,8.5,5.5,14.7,5.5c5.2,0,9.5-1.2,12.7-3.5
		c3.3-2.3,5.3-5.5,6-9.4l-11.6-0.3c-0.5,1.3-1.3,2.3-2.6,3c-1.2,0.7-2.7,1.1-4.3,1.1c-2.4,0-4.3-0.7-5.8-2.2
		c-1.4-1.5-2.1-3.4-2.1-5.9v-0.3H190.3z M166,34.9c1.4-1.3,3.2-2,5.3-2c2.1,0,3.8,0.7,5.2,2c1.4,1.3,2,3,2.1,5h-14.7
		C163.9,37.9,164.6,36.2,166,34.9"/>
	<path class="st0" d="M219.9,24.3v6.8h-0.4c-0.8-1.8-2-3.5-3.8-5c-1.8-1.5-4.3-2.3-7.4-2.3c-2.8,0-5.3,0.7-7.8,2.2
		c-2.4,1.5-4.4,3.7-5.9,6.7c-1.5,3-2.2,6.8-2.2,11.5c0,4.5,0.7,8.2,2.2,11c1.4,2.9,3.4,5,5.8,6.3c2.4,1.4,5.1,2,8,2
		c2.9,0,5.4-0.6,7.3-1.8c1.9-1.2,3.2-2.7,4-4.6h0.4v7c0,2.4-0.7,4.1-2.1,5.1c-1.4,1-3.1,1.5-5.3,1.5c-2,0-3.7-0.4-4.9-1
		c-1.2-0.7-2-1.6-2.3-2.6l-12,0.7c0.5,3.3,2.3,6.1,5.5,8.4c3.2,2.3,7.6,3.4,13.3,3.4c4,0,7.5-0.6,10.5-1.8c3-1.2,5.4-2.9,7.1-5.2
		c1.7-2.3,2.6-5,2.6-8.3V24.3H219.9z M218.1,51.6c-1.3,1.8-3.1,2.7-5.4,2.7c-2.3,0-4.2-0.9-5.4-2.7c-1.3-1.8-1.9-4.3-1.9-7.5
		c0-3.2,0.6-5.7,1.9-7.6c1.3-1.9,3.1-2.8,5.4-2.8c2.3,0,4.1,0.9,5.4,2.8c1.3,1.9,1.9,4.4,1.9,7.6C220.1,47.3,219.4,49.8,218.1,51.6"
		/>
	<path class="st0" d="M268.6,29.8c-1.5-2-3.6-3.5-6.3-4.5c-2.7-1-5.7-1.6-9-1.6c-5.4,0-9.5,1.2-12.5,3.6c-3,2.4-4.7,5.4-5.2,9
		l11.7,0.4c0.3-1.3,0.9-2.3,1.9-3c1-0.7,2.4-1.1,4-1.1c1.6,0,2.8,0.4,3.7,1.1c0.9,0.7,1.4,1.8,1.4,3.1V37c0,1.2-0.7,2-2.2,2.5
		c-1.4,0.4-3.9,0.8-7.3,1.1c-2.7,0.2-5.1,0.8-7.4,1.6c-2.2,0.8-4,2.1-5.4,3.9c-1.3,1.7-2,4.1-2,7c0,3.9,1.2,6.9,3.7,8.8
		c2.5,1.9,5.6,2.9,9.4,2.9c5.5,0,9.3-2.1,11.5-6.2h0.3V64h11.9V37C270.9,34.2,270.1,31.8,268.6,29.8 M258.3,49.9
		c0,1.9-0.7,3.5-2.1,4.7c-1.4,1.2-3.1,1.8-5.2,1.8c-1.5,0-2.7-0.4-3.6-1c-0.9-0.7-1.4-1.7-1.4-3c0-2.5,1.9-4.1,5.6-4.7
		c1.2-0.2,2.4-0.4,3.7-0.7c1.3-0.3,2.3-0.6,3-1V49.9z"/>
	<rect x="318.2" y="11" class="st1" width="12.7" height="53"/>
	<path class="st1" d="M359.8,46.9c0,2.3-0.6,4.1-1.9,5.4c-1.3,1.2-2.9,1.9-4.8,1.9c-1.9,0-3.5-0.6-4.6-1.9c-1.1-1.2-1.7-2.9-1.7-5.1
		V24.3h-12.7v25.4c0,3,0.6,5.6,1.7,7.8c1.1,2.2,2.7,4,4.8,5.2c2,1.2,4.4,1.9,7.2,1.9c3,0,5.5-0.7,7.6-2.1c2.1-1.4,3.6-3.4,4.5-5.8
		h0.4V64h12.1V24.3h-12.6V46.9z"/>
	<path class="st1" d="M402.8,24.3v6.8h-0.4c-0.8-1.8-2-3.5-3.8-5c-1.8-1.5-4.3-2.3-7.4-2.3c-2.8,0-5.4,0.7-7.8,2.2
		c-2.4,1.5-4.4,3.7-5.9,6.7c-1.5,3-2.2,6.8-2.2,11.5c0,4.5,0.7,8.2,2.2,11c1.4,2.9,3.4,5,5.8,6.3c2.4,1.4,5.1,2,8,2
		c2.9,0,5.4-0.6,7.3-1.8c1.9-1.2,3.2-2.7,4-4.6h0.4v7c0,2.4-0.7,4.1-2.1,5.1c-1.4,1-3.1,1.5-5.3,1.5c-2,0-3.7-0.4-4.9-1
		c-1.2-0.7-2-1.6-2.3-2.6l-12,0.7c0.5,3.3,2.3,6.1,5.5,8.4c3.2,2.3,7.6,3.4,13.3,3.4c4,0,7.5-0.6,10.5-1.8c3-1.2,5.4-2.9,7.1-5.2
		c1.7-2.3,2.6-5,2.6-8.3V24.3H402.8z M401,51.6c-1.3,1.8-3.1,2.7-5.4,2.7c-2.3,0-4.1-0.9-5.4-2.7c-1.3-1.8-1.9-4.3-1.9-7.5
		c0-3.2,0.6-5.7,1.9-7.6c1.3-1.9,3.1-2.8,5.4-2.8c2.3,0,4.1,0.9,5.4,2.8c1.3,1.9,1.9,4.4,1.9,7.6C403,47.3,402.3,49.8,401,51.6"/>
	<path class="st1" d="M273.8,64V11h21.9c4,0,7.4,0.8,10.3,2.3c2.9,1.5,5.1,3.7,6.7,6.4c1.6,2.8,2.4,6,2.4,9.6c0,3.7-0.8,6.9-2.4,9.6
		c-1.6,2.7-3.9,4.9-6.8,6.4c-2.9,1.5-6.4,2.3-10.5,2.3h-8.7V64H273.8z M286.6,37.5h6.3c2.9,0,5.1-0.7,6.6-2.2
		c1.5-1.5,2.3-3.4,2.3-5.9c0-2.5-0.8-4.4-2.3-5.9c-1.5-1.4-3.7-2.2-6.6-2.2h-6.3V37.5z"/>
	<g>
		<g>
			<g>
				<defs>
					<path id="SVGID_1_" d="M2.1,24.9c-1.2,2.7-1.7,5.5-2.1,8.4h26.3l7.8-8.4H2.1z"/>
				</defs>
				<clipPath id="SVGID_00000026844781633129155300000017287934289015629720_">
					<use xlink:href="#SVGID_1_"  style="overflow:visible;"/>
				</clipPath>
				<defs>
					<filter id="Adobe_OpacityMaskFilter" filterUnits="userSpaceOnUse" x="-0.3" y="24.9" width="35.5" height="8.4">
						<feColorMatrix  type="matrix" values="1 0 0 0 0  0 1 0 0 0  0 0 1 0 0  0 0 0 1 0"/>
					</filter>
				</defs>
				
					<mask maskUnits="userSpaceOnUse" x="-0.3" y="24.9" width="35.5" height="8.4" id="SVGID_00000085214967727157697420000002428414101585617065_">
					<g class="st2">
						
							<linearGradient id="SVGID_00000165937189734035401150000017453699490751794358_" gradientUnits="userSpaceOnUse" x1="2110.4175" y1="422.3041" x2="2111.7256" y2="422.3041" gradientTransform="matrix(27.1486 0 0 -27.1486 -57295.125 11494.0303)">
							<stop  offset="0" style="stop-color:#FFFFFF"/>
							<stop  offset="1" style="stop-color:#000000"/>
						</linearGradient>
						
							<rect x="-0.3" y="24.9" style="clip-path:url(#SVGID_00000026844781633129155300000017287934289015629720_);fill:url(#SVGID_00000165937189734035401150000017453699490751794358_);" width="35.5" height="8.4"/>
					</g>
				</mask>
				
					<linearGradient id="SVGID_00000102507889000434467790000011378874655916264872_" gradientUnits="userSpaceOnUse" x1="2110.4175" y1="422.3041" x2="2111.7256" y2="422.3041" gradientTransform="matrix(27.1486 0 0 -27.1486 -57295.125 11494.0303)">
					<stop  offset="0" style="stop-color:#ABCF3B"/>
					<stop  offset="1" style="stop-color:#ABCF3B"/>
				</linearGradient>
				
					<rect x="-0.3" y="24.9" style="clip-path:url(#SVGID_00000026844781633129155300000017287934289015629720_);mask:url(#SVGID_00000085214967727157697420000002428414101585617065_);fill:url(#SVGID_00000102507889000434467790000011378874655916264872_);" width="35.5" height="8.4"/>
			</g>
			<g>
				<path class="st1" d="M33.1,59.4C42.9,49,59,31.8,59.1,31.6c-0.2,0-0.3,0-0.4,0c-5.8,0-11.6,0-17.3,0c-0.5,0-0.5-0.1-0.4-0.4
					c0.5-1.2,1-2.4,1.5-3.5c0.6-1.4,1.2-2.8,1.8-4.2c0.2-0.4,0.4-0.8,0.5-1.2c0.6-1.4,1.2-2.7,1.7-4.1c0.8-1.8,1.5-3.6,2.3-5.4
					c0.8-1.8,1.5-3.6,2.3-5.4c0.2-0.4,0.4-0.8,0.5-1.3c-0.2,0-0.3,0.1-0.3,0.2c-1.7,1.8-3.3,3.5-5,5.3c-1,1-1.9,2.1-2.9,3.1
					c-1.2,1.3-2.4,2.6-3.6,3.9c-1.5,1.6-3.1,3.3-4.6,4.9c0,0,0,0,0,0c0,0,6.4-6.8,6.4-6.8l-6.5-0.2H6.2C13,6.5,24.4,0,37.3,0
					c12.9,0,24.3,6.5,31,16.4c1.8,2.6,3.2,5.4,4.3,8.4c1,2.7,1.6,5.5,1.9,8.4c0.2,1.4,0.2,2.8,0.2,4.2c0,1.4-0.1,2.8-0.2,4.2
					c-0.3,2.9-1,5.8-1.9,8.4c-1.1,3-2.5,5.8-4.3,8.4C61.6,68.5,50.2,75,37.3,75c-12.9,0-24.3-6.5-31-16.4L29,58.3
					c-0.1,0.2-0.3,0.8-0.4,1c-0.8,1.8-1.1,3.5-1.9,5.3c-0.3,0.8-0.7,1.5-1,2.3C25.8,67,28.9,63.8,33.1,59.4"/>
			</g>
			<g>
				<defs>
					<path id="SVGID_00000176764147163040544150000011350301210206436013_" d="M2.1,24.9c-1.2,2.7-1.7,5.5-2.1,8.4h25.8l8.3-8.4H2.1
						z"/>
				</defs>
				<clipPath id="SVGID_00000145743064452271639210000017439606197408793274_">
					<use xlink:href="#SVGID_00000176764147163040544150000011350301210206436013_"  style="overflow:visible;"/>
				</clipPath>
				<defs>
					
						<filter id="Adobe_OpacityMaskFilter_00000057129027049812381310000005336141755017884806_" filterUnits="userSpaceOnUse" x="-1.3" y="20.5" width="38.1" height="17.1">
						<feColorMatrix  type="matrix" values="1 0 0 0 0  0 1 0 0 0  0 0 1 0 0  0 0 0 1 0"/>
					</filter>
				</defs>
				
					<mask maskUnits="userSpaceOnUse" x="-1.3" y="20.5" width="38.1" height="17.1" id="SVGID_00000150065493662351435410000004637871207590999953_">
					<g style="filter:url(#Adobe_OpacityMaskFilter_00000057129027049812381310000005336141755017884806_);">
						
							<linearGradient id="SVGID_00000124140834750856477520000004158985766527780022_" gradientUnits="userSpaceOnUse" x1="2135.675" y1="411.7806" x2="2136.9958" y2="411.7806" gradientTransform="matrix(35.658 5.4794 5.4794 -35.658 -78415.0078 3006.7993)">
							<stop  offset="0" style="stop-color:#FFFFFF"/>
							<stop  offset="1" style="stop-color:#000000"/>
						</linearGradient>
						
							<polygon style="clip-path:url(#SVGID_00000145743064452271639210000017439606197408793274_);fill:url(#SVGID_00000124140834750856477520000004158985766527780022_);" points="
							0.5,20.5 36.8,25.1 34.4,37.6 -1.9,33.1 						"/>
					</g>
				</mask>
				
					<linearGradient id="SVGID_00000146490194738522599920000000881800349683164293_" gradientUnits="userSpaceOnUse" x1="2135.6885" y1="411.7809" x2="2136.9939" y2="411.7809" gradientTransform="matrix(35.658 5.4794 5.4794 -35.658 -78415.0156 3006.7998)">
					<stop  offset="0" style="stop-color:#3EB657"/>
					<stop  offset="1" style="stop-color:#3EB657"/>
				</linearGradient>
				
					<polygon style="clip-path:url(#SVGID_00000145743064452271639210000017439606197408793274_);mask:url(#SVGID_00000150065493662351435410000004637871207590999953_);fill:url(#SVGID_00000146490194738522599920000000881800349683164293_);" points="
					0.5,20.5 36.8,25.1 34.4,37.6 -1.3,33.2 				"/>
			</g>
			<g>
				<defs>
					<path id="SVGID_00000003101551771864178850000006129129495977454722_" d="M0,41.7c0.3,2.9,1.1,5.8,2.1,8.4h30l3.2-8.4H0z"/>
				</defs>
				<clipPath id="SVGID_00000059294112341589894970000010863343031206614401_">
					<use xlink:href="#SVGID_00000003101551771864178850000006129129495977454722_"  style="overflow:visible;"/>
				</clipPath>
				<defs>
					
						<filter id="Adobe_OpacityMaskFilter_00000008854019391238412600000018221106601812269456_" filterUnits="userSpaceOnUse" x="-0.2" y="40.9" width="35.6" height="10.2">
						<feColorMatrix  type="matrix" values="1 0 0 0 0  0 1 0 0 0  0 0 1 0 0  0 0 0 1 0"/>
					</filter>
				</defs>
				
					<mask maskUnits="userSpaceOnUse" x="-0.2" y="40.9" width="35.6" height="10.2" id="SVGID_00000108273086997711752010000009949291465194952073_">
					<g style="filter:url(#Adobe_OpacityMaskFilter_00000008854019391238412600000018221106601812269456_);">
						
							<linearGradient id="SVGID_00000096046751274021560920000012863001456216564402_" gradientUnits="userSpaceOnUse" x1="2268.1553" y1="427.8165" x2="2269.2881" y2="427.8165" gradientTransform="matrix(-43.9746 -1.1542 -1.1542 43.9746 100274 -16148.6514)">
							<stop  offset="0" style="stop-color:#FFFFFF"/>
							<stop  offset="1" style="stop-color:#000000"/>
						</linearGradient>
						
							<polygon style="clip-path:url(#SVGID_00000059294112341589894970000010863343031206614401_);fill:url(#SVGID_00000096046751274021560920000012863001456216564402_);" points="
							35.2,51 -0.2,50.2 0,40.9 35.4,41.7 						"/>
					</g>
				</mask>
				
					<linearGradient id="SVGID_00000059289099392103975610000000882362968532436124_" gradientUnits="userSpaceOnUse" x1="2268.1553" y1="427.8165" x2="2269.2881" y2="427.8165" gradientTransform="matrix(-43.9746 -1.1542 -1.1542 43.9746 100274.0078 -16148.6533)">
					<stop  offset="0" style="stop-color:#3EB657"/>
					<stop  offset="1" style="stop-color:#3EB657"/>
				</linearGradient>
				
					<polygon style="clip-path:url(#SVGID_00000059294112341589894970000010863343031206614401_);mask:url(#SVGID_00000108273086997711752010000009949291465194952073_);fill:url(#SVGID_00000059289099392103975610000000882362968532436124_);" points="
					35.2,51 -0.2,50.2 0,40.9 35.4,41.7 				"/>
			</g>
		</g>
		<polyline class="st11" points="51.8,5.7 18.5,41.7 35.2,41.7 25.7,67.1 		"/>
	</g>
</g>
</svg>
