<?xml version="1.0" encoding="utf-8"?>
<svg
  xmlns="http://www.w3.org/2000/svg"
  viewBox="0 0 33 33"
  width="33"
  height="33">

  <!-- Main circular / charger shape -->
  <path
    fill="#3EB657"
    d="M14.6,26.2C19,21.6,26.1,14,26.1,13.9c-2.6,0-5.1,0-7.6,0
    0.2-0.5,0.4-1.1,0.7-1.5l4.8-11.5-6.8,7.1-2.9-0.1H2.7
    c3-4.4,8-7.3,13.7-7.3s10.7,2.9,13.7,7.2
    c1.8,2.6,2.8,5.6,2.8,8.5s-1,5.9-2.8,8.5
    c-3,4.5-8,7.3-13.7,7.3S5.7,30.2,2.8,25.8h10
    l-1.4,3.6C11.4,29.5,12.8,28.1,14.6,26.2z"/>

  <!-- Lightning / charge icon -->
  <polygon
    fill="#3EB657"
    points="11.5,29.6 11.2,29.5 15.3,18.5 7.8,18.5 22.8,2.3
            23,2.6 8.5,18.2 15.8,18.2"/>

</svg>
