<svg width="80" height="81" viewBox="0 0 80 81" fill="none" xmlns="http://www.w3.org/2000/svg">
<mask id="mask0_1_366" style="mask-type:luminance" maskUnits="userSpaceOnUse" x="0" y="26" width="31" height="10">
<path d="M2.09507 26.9355C1.07031 29.8048 0.352987 32.8222 0.0113983 35.9534H23.8315L30.9251 26.9355H2.09507Z" fill="white"/>
</mask>
<g mask="url(#mask0_1_366)">
<path d="M30.9251 26.9355H0.0113983V35.9534H30.9251V26.9355Z" fill="url(#paint0_linear_1_366)"/>
</g>
<path d="M79.9886 40.4739C79.9886 41.9996 79.8976 43.5026 79.7381 44.9828C79.3852 48.114 78.6792 51.1314 77.6544 54.0008C76.5044 57.2117 74.9559 60.2404 73.0658 63.0187C65.8469 73.6307 53.6749 80.5991 39.8747 80.5991C26.0746 80.5991 13.9026 73.6307 6.68375 63.0187H35.3772V71.0915L41.7307 63.0187L48.8244 54.0008L55.918 44.9828L63.0117 35.9649H44.3723V9.85614L38.0188 17.929H6.69514C13.914 7.31699 26.086 0.359985 39.8861 0.359985C53.6863 0.359985 65.8582 7.32838 73.0771 17.929C74.9672 20.7073 76.5158 23.736 77.6658 26.947C78.6906 29.8163 79.4079 32.8337 79.7495 35.9649C79.9203 37.4451 80 38.9481 80 40.4739" fill="#07C355"/>
<mask id="mask1_1_366" style="mask-type:luminance" maskUnits="userSpaceOnUse" x="0" y="26" width="31" height="10">
<path d="M2.09507 26.9355C1.07031 29.8048 0.352987 32.8222 0.0113983 35.9534H23.8315L30.9251 26.9355H2.09507Z" fill="white"/>
</mask>
<g mask="url(#mask1_1_366)">
<path d="M0.758542 22.3497L-1.30899 35.7983L30.2474 40.6496L32.3149 27.2011L0.758542 22.3497Z" fill="url(#paint1_linear_1_366)"/>
</g>
<mask id="mask2_1_366" style="mask-type:luminance" maskUnits="userSpaceOnUse" x="0" y="44" width="36" height="10">
<path d="M0.0113974 44.9713C0.352986 48.1025 1.07031 51.1199 2.09507 53.9893H35.3772V44.9713H0H0.0113974Z" fill="white"/>
</mask>
<g mask="url(#mask2_1_366)">
<path d="M-0.00526837 44.0246L-0.265472 53.9614L35.3158 54.8931L35.5761 44.9563L-0.00526837 44.0246Z" fill="url(#paint2_linear_1_366)"/>
</g>
<path d="M35.0925 71.0915L34.842 45.5179H15.5309L41.4574 12.6116L41.9015 12.9645L16.7037 44.9486H35.3999V45.2332L35.6618 71.0801L35.0925 71.0915Z" fill="url(#paint3_linear_1_366)"/>
<defs>
<linearGradient id="paint0_linear_1_366" x1="2.07231" y1="26.2774" x2="32.9861" y2="26.2774" gradientUnits="userSpaceOnUse">
<stop stop-color="#ABDB35"/>
<stop offset="1" stop-color="#ABDB35"/>
</linearGradient>
<linearGradient id="paint1_linear_1_366" x1="3.6583" y1="17.1498" x2="44.263" y2="23.3922" gradientUnits="userSpaceOnUse">
<stop stop-color="#07C355"/>
<stop offset="1" stop-color="#07C355"/>
</linearGradient>
<linearGradient id="paint2_linear_1_366" x1="38.9219" y1="50.7462" x2="-11.1492" y2="49.435" gradientUnits="userSpaceOnUse">
<stop stop-color="#07C355"/>
<stop offset="1" stop-color="#07C355"/>
</linearGradient>
<linearGradient id="paint3_linear_1_366" x1="15.5309" y1="41.8515" x2="41.9015" y2="41.8515" gradientUnits="userSpaceOnUse">
<stop stop-color="#07C355"/>
<stop offset="1" stop-color="#07C355"/>
</linearGradient>
</defs>
</svg>
