<svg width="413" height="78" viewBox="0 0 413 78" fill="none" xmlns="http://www.w3.org/2000/svg">
<mask id="mask0_1_365" style="mask-type:luminance" maskUnits="userSpaceOnUse" x="0" y="23" width="28" height="9">
<path d="M1.84 23.34C0.939996 25.86 0.31001 28.51 0.0100098 31.26H20.93L27.16 23.34H1.84Z" fill="white"/>
</mask>
<g mask="url(#mask0_1_365)">
<path d="M27.16 23.34H0.0100098V31.26H27.16V23.34Z" fill="url(#paint0_linear_1_365)"/>
</g>
<path d="M70.25 35.23C70.25 36.57 70.17 37.89 70.03 39.19C69.72 41.94 69.1 44.59 68.2 47.11C67.19 49.93 65.83 52.59 64.17 55.03C57.83 64.35 47.14 70.47 35.02 70.47C22.9 70.47 12.21 64.35 5.87 55.03H31.07V62.12L36.65 55.03L42.88 47.11L49.11 39.19L55.34 31.27H38.97V8.34L33.39 15.43H5.88C12.22 6.10999 22.91 0 35.03 0C47.15 0 57.84 6.11999 64.18 15.43C65.84 17.87 67.2 20.53 68.21 23.35C69.11 25.87 69.74 28.52 70.04 31.27C70.19 32.57 70.26 33.89 70.26 35.23" fill="#07C355"/>
<mask id="mask1_1_365" style="mask-type:luminance" maskUnits="userSpaceOnUse" x="0" y="23" width="28" height="9">
<path d="M1.84 23.34C0.939996 25.86 0.31001 28.51 0.0100098 31.26H20.93L27.16 23.34H1.84Z" fill="white"/>
</mask>
<g mask="url(#mask1_1_365)">
<path d="M0.666183 19.3126L-1.14963 31.1238L26.5648 35.3845L28.3806 23.5733L0.666183 19.3126Z" fill="url(#paint1_linear_1_365)"/>
</g>
<path d="M130.43 8.70996L116.97 41.5399H116.35L102.88 8.70996H87.01V61.74H99.49V28.99H99.94L112.67 61.3999H120.65L133.39 29.17H133.82V61.74H146.3V8.70996H130.43Z" fill="#001515"/>
<path d="M187.69 44.9099V41.7499C187.69 37.3799 186.87 33.69 185.23 30.67C183.59 27.65 181.32 25.3599 178.42 23.7899C175.52 22.2299 172.19 21.45 168.43 21.45C164.42 21.45 160.94 22.3099 158 24.0299C155.05 25.7499 152.76 28.15 151.13 31.2299C149.51 34.3099 148.7 37.9099 148.7 42.0099C148.7 48.3699 150.49 53.39 154.08 57.02C157.66 60.67 162.57 62.4799 168.82 62.4799C174.04 62.4799 178.28 61.32 181.56 58.9799C184.84 56.6399 186.85 53.5199 187.57 49.6199L175.94 49.2899C175.46 50.5999 174.6 51.61 173.37 52.3C172.15 53 170.7 53.3499 169.05 53.3499C166.62 53.3499 164.7 52.6099 163.3 51.1299C161.89 49.6399 161.18 47.6799 161.18 45.2499V44.92H187.7L187.69 44.9099ZM163.42 32.58C164.83 31.25 166.58 30.5899 168.69 30.5899C170.8 30.5899 172.49 31.24 173.85 32.55C175.2 33.85 175.89 35.5199 175.92 37.5599H161.18C161.27 35.5699 162.02 33.91 163.42 32.58Z" fill="#001515"/>
<path d="M217.3 21.9699V28.7799H216.94C216.18 26.9599 214.9 25.27 213.09 23.74C211.28 22.22 208.82 21.45 205.67 21.45C202.91 21.45 200.33 22.1799 197.91 23.6199C195.49 25.0799 193.54 27.3 192.06 30.3C190.58 33.3 189.83 37.1299 189.83 41.7899C189.83 46.4499 190.55 49.98 191.99 52.83C193.44 55.69 195.36 57.7999 197.77 59.1499C200.17 60.5099 202.83 61.1799 205.73 61.1799C208.63 61.1799 211.08 60.5699 213 59.3499C214.91 58.1399 216.24 56.6099 216.99 54.7799H217.43V61.77C217.43 64.15 216.74 65.8399 215.34 66.8499C213.95 67.8399 212.2 68.3499 210.08 68.3499C207.96 68.3499 206.43 68 205.22 67.3C204.02 66.6 203.25 65.72 202.9 64.67L190.91 65.3399C191.38 68.6499 193.21 71.45 196.42 73.71C199.63 75.98 204.07 77.1199 209.73 77.1199C213.74 77.1199 217.25 76.5299 220.27 75.3499C223.29 74.1599 225.65 72.4399 227.36 70.1599C229.06 67.8899 229.91 65.12 229.91 61.86V21.9399H217.3V21.9699ZM215.53 49.2899C214.24 51.0799 212.44 51.9799 210.13 51.9799C207.82 51.9799 205.97 51.08 204.72 49.27C203.46 47.47 202.83 44.98 202.83 41.8C202.83 38.62 203.46 36.0899 204.72 34.1899C205.98 32.2899 207.78 31.3499 210.13 31.3499C212.48 31.3499 214.24 32.2899 215.53 34.1599C216.82 36.0299 217.46 38.5799 217.46 41.8099C217.46 45.0399 216.82 47.5 215.53 49.3" fill="#001515"/>
<path d="M265.99 27.5399C264.47 25.5699 262.38 24.06 259.72 23.02C257.07 21.98 254.06 21.46 250.67 21.46C245.32 21.46 241.15 22.6599 238.16 25.0599C235.17 27.4599 233.42 30.4699 232.92 34.0999L244.6 34.5099C244.88 33.2399 245.52 32.2399 246.54 31.5099C247.56 30.7899 248.91 30.42 250.58 30.42C252.13 30.42 253.36 30.7899 254.28 31.5099C255.2 32.2399 255.66 33.2699 255.66 34.5999V34.7199C255.66 35.9299 254.93 36.7499 253.49 37.1799C252.05 37.6099 249.63 37.97 246.23 38.27C243.55 38.5 241.09 39.0199 238.85 39.8699C236.6 40.7099 234.81 41.99 233.46 43.7299C232.11 45.4599 231.44 47.7999 231.44 50.7299C231.44 54.6699 232.67 57.5999 235.13 59.5399C237.59 61.4699 240.72 62.4299 244.52 62.4299C250.01 62.4299 253.85 60.3599 256.06 56.2199H256.37V61.77H268.28V34.74C268.28 31.93 267.52 29.5399 265.99 27.5699M255.73 47.61C255.73 49.54 255.02 51.1199 253.59 52.3199C252.17 53.5199 250.44 54.1299 248.43 54.1299C246.96 54.1299 245.76 53.7799 244.83 53.0899C243.89 52.3999 243.43 51.3999 243.43 50.0899C243.43 47.5499 245.3 45.9999 249.04 45.4299C250.22 45.2499 251.45 45.0399 252.73 44.7799C254.02 44.5199 255.01 44.2 255.72 43.83V47.61H255.73Z" fill="#001515"/>
<path d="M328.21 8.70996H315.55V61.74H328.21V8.70996Z" fill="#07C355"/>
<path d="M357.24 44.57C357.24 46.89 356.6 48.67 355.3 49.92C354 51.17 352.41 51.79 350.53 51.79C348.65 51.79 347.07 51.17 345.95 49.93C344.83 48.69 344.26 46.98 344.24 44.83V21.97H331.58V47.32C331.6 50.31 332.18 52.92 333.32 55.16C334.46 57.41 336.05 59.15 338.1 60.4C340.14 61.64 342.53 62.26 345.26 62.26C348.25 62.26 350.8 61.55 352.91 60.12C355.03 58.7 356.52 56.77 357.4 54.33H357.82V61.74H369.88V21.97H357.25V44.57H357.24Z" fill="#07C355"/>
<path d="M400.21 21.9699V28.7799H399.85C399.09 26.9599 397.81 25.27 396 23.74C394.2 22.22 391.73 21.45 388.59 21.45C385.82 21.45 383.24 22.1799 380.82 23.6199C378.4 25.0799 376.45 27.3 374.97 30.3C373.49 33.3 372.74 37.1299 372.74 41.7899C372.74 46.4499 373.46 49.98 374.91 52.83C376.35 55.69 378.27 57.7999 380.68 59.1499C383.09 60.5099 385.74 61.1799 388.64 61.1799C391.54 61.1799 394 60.5699 395.92 59.3499C397.84 58.1399 399.17 56.6099 399.9 54.7799H400.34V61.77C400.34 64.15 399.65 65.8399 398.26 66.8499C396.87 67.8399 395.12 68.3499 392.99 68.3499C390.86 68.3499 389.34 68 388.13 67.3C386.93 66.6 386.16 65.72 385.81 64.67L373.82 65.3399C374.29 68.6499 376.13 71.45 379.34 73.71C382.54 75.98 386.98 77.1199 392.65 77.1199C396.65 77.1199 400.16 76.5299 403.18 75.3499C406.21 74.1599 408.57 72.4399 410.26 70.1599C411.96 67.8899 412.81 65.12 412.81 61.86V21.9399H400.2L400.21 21.9699ZM398.43 49.2899C397.15 51.0799 395.34 51.9799 393.03 51.9799C390.72 51.9799 388.88 51.08 387.62 49.27C386.36 47.47 385.73 44.98 385.73 41.8C385.73 38.62 386.36 36.0899 387.62 34.1899C388.88 32.2899 390.68 31.3499 393.03 31.3499C395.38 31.3499 397.14 32.2899 398.43 34.1599C399.72 36.0299 400.36 38.5799 400.36 41.8099C400.36 45.0399 399.72 47.5 398.43 49.3" fill="#07C355"/>
<path d="M271.16 61.7499V8.70996H293.07C297.04 8.70996 300.47 9.47994 303.36 11.0299C306.25 12.5699 308.48 14.7199 310.05 17.4799C311.62 20.2299 312.41 23.43 312.41 27.08C312.41 30.73 311.61 33.9399 310 36.6799C308.39 39.4199 306.12 41.5399 303.17 43.0399C300.23 44.5399 296.73 45.2899 292.67 45.2899H283.97V61.7599H271.15L271.16 61.7499ZM283.98 35.1799H290.3C293.18 35.1799 295.38 34.4399 296.88 32.9699C298.38 31.4899 299.13 29.53 299.13 27.08C299.13 24.63 298.38 22.66 296.88 21.21C295.38 19.77 293.18 19.05 290.3 19.05H283.98V35.1799Z" fill="#07C355"/>
<mask id="mask2_1_365" style="mask-type:luminance" maskUnits="userSpaceOnUse" x="0" y="39" width="32" height="9">
<path d="M0.0100098 39.1799C0.31001 41.9299 0.939996 44.5799 1.84 47.0999H31.07V39.1799H0H0.0100098Z" fill="white"/>
</mask>
<g mask="url(#mask2_1_365)">
<path d="M-0.00463005 38.3485L-0.233154 47.0754L31.0161 47.8937L31.2447 39.1667L-0.00463005 38.3485Z" fill="url(#paint2_linear_1_365)"/>
</g>
<path d="M30.82 62.12L30.6 39.66H13.64L36.41 10.76L36.8 11.07L14.67 39.16H31.09V39.41L31.32 62.11L30.82 62.12Z" fill="url(#paint3_linear_1_365)"/>
<defs>
<linearGradient id="paint0_linear_1_365" x1="1.82001" y1="22.762" x2="28.97" y2="22.762" gradientUnits="userSpaceOnUse">
<stop stop-color="#ABDB35"/>
<stop offset="1" stop-color="#ABDB35"/>
</linearGradient>
<linearGradient id="paint1_linear_1_365" x1="3.21289" y1="14.7457" x2="38.8739" y2="20.2281" gradientUnits="userSpaceOnUse">
<stop stop-color="#07C355"/>
<stop offset="1" stop-color="#07C355"/>
</linearGradient>
<linearGradient id="paint2_linear_1_365" x1="34.1832" y1="44.2517" x2="-9.79177" y2="43.1002" gradientUnits="userSpaceOnUse">
<stop stop-color="#07C355"/>
<stop offset="1" stop-color="#07C355"/>
</linearGradient>
<linearGradient id="paint3_linear_1_365" x1="13.64" y1="36.44" x2="36.8" y2="36.44" gradientUnits="userSpaceOnUse">
<stop stop-color="#07C355"/>
<stop offset="1" stop-color="#07C355"/>
</linearGradient>
</defs>
</svg>
