<svg width="413" height="78" viewBox="0 0 413 78" fill="none" xmlns="http://www.w3.org/2000/svg">
<mask id="mask0_1_367" style="mask-type:luminance" maskUnits="userSpaceOnUse" x="0" y="23" width="28" height="9">
<path d="M1.85001 23.58C0.950006 26.1 0.32002 28.75 0.0200195 31.5H20.94L27.17 23.58H1.85001Z" fill="white"/>
</mask>
<g mask="url(#mask0_1_367)">
<path d="M27.16 23.58H0.0100098V31.5H27.16V23.58Z" fill="url(#paint0_linear_1_367)"/>
</g>
<path d="M70.26 35.47C70.26 36.81 70.18 38.13 70.04 39.43C69.73 42.18 69.11 44.83 68.21 47.35C67.2 50.17 65.84 52.83 64.18 55.27C57.84 64.59 47.15 70.71 35.03 70.71C22.91 70.71 12.22 64.59 5.88 55.27H31.08V62.36L36.66 55.27L42.89 47.35L49.12 39.43L55.35 31.51H38.98V8.57999L33.4 15.67H5.89001C12.23 6.34998 22.92 0.23999 35.04 0.23999C47.16 0.23999 57.85 6.35998 64.19 15.67C65.85 18.11 67.21 20.77 68.22 23.59C69.12 26.11 69.75 28.76 70.05 31.51C70.2 32.81 70.27 34.13 70.27 35.47" fill="white"/>
<mask id="mask1_1_367" style="mask-type:luminance" maskUnits="userSpaceOnUse" x="0" y="23" width="28" height="9">
<path d="M1.85001 23.58C0.950006 26.1 0.32002 28.75 0.0200195 31.5H20.94L27.17 23.58H1.85001Z" fill="white"/>
</mask>
<g mask="url(#mask1_1_367)">
<path d="M0.670765 19.5429L-1.14505 31.3541L26.5694 35.6148L28.3852 23.8036L0.670765 19.5429Z" fill="url(#paint1_linear_1_367)"/>
</g>
<path d="M130.44 8.94995L116.97 41.7799H116.36L102.89 8.94995H87.02V61.9799H99.5V29.2299H99.95L112.68 61.6399H120.66L133.39 29.4099H133.83V61.9799H146.31V8.94995H130.44Z" fill="white"/>
<path d="M187.7 45.1499V41.9899C187.7 37.6199 186.88 33.9299 185.24 30.9099C183.6 27.8899 181.33 25.5999 178.43 24.0299C175.53 22.4699 172.2 21.6899 168.44 21.6899C164.43 21.6899 160.95 22.5499 158.01 24.2699C155.06 25.9899 152.77 28.3899 151.14 31.4699C149.52 34.5499 148.71 38.1499 148.71 42.2499C148.71 48.6099 150.5 53.6299 154.09 57.2599C157.67 60.91 162.58 62.7199 168.83 62.7199C174.05 62.7199 178.29 61.5599 181.57 59.2199C184.85 56.8799 186.86 53.7599 187.58 49.8599L175.95 49.5299C175.47 50.8399 174.61 51.8499 173.38 52.5399C172.16 53.2399 170.71 53.5899 169.06 53.5899C166.63 53.5899 164.71 52.8499 163.31 51.3699C161.9 49.8799 161.19 47.9199 161.19 45.4899V45.1599H187.71L187.7 45.1499ZM163.42 32.8199C164.83 31.4899 166.58 30.8299 168.69 30.8299C170.8 30.8299 172.49 31.4799 173.85 32.7899C175.2 34.0899 175.89 35.7599 175.92 37.7999H161.18C161.27 35.8099 162.02 34.1499 163.42 32.8199Z" fill="white"/>
<path d="M217.31 22.2099V29.0199H216.95C216.19 27.1999 214.91 25.5099 213.1 23.9799C211.29 22.4599 208.83 21.6899 205.68 21.6899C202.92 21.6899 200.34 22.4199 197.92 23.8599C195.5 25.3199 193.55 27.5399 192.07 30.5399C190.59 33.5399 189.84 37.3699 189.84 42.0299C189.84 46.6899 190.56 50.2199 192 53.0699C193.45 55.9299 195.37 58.0399 197.78 59.3899C200.18 60.7499 202.84 61.4199 205.74 61.4199C208.64 61.4199 211.09 60.8099 213.01 59.5899C214.92 58.3799 216.25 56.8499 217 55.0199H217.44V62.0099C217.44 64.3899 216.75 66.0799 215.35 67.0899C213.96 68.0799 212.21 68.5899 210.09 68.5899C207.97 68.5899 206.44 68.2399 205.23 67.5399C204.03 66.8399 203.26 65.9599 202.91 64.9099L190.92 65.5799C191.39 68.8899 193.22 71.69 196.43 73.95C199.64 76.22 204.08 77.3599 209.74 77.3599C213.75 77.3599 217.26 76.7699 220.28 75.5899C223.3 74.3999 225.66 72.6799 227.37 70.3999C229.07 68.1299 229.92 65.3599 229.92 62.0999V22.1799H217.31V22.2099ZM215.54 49.5299C214.25 51.3199 212.45 52.2199 210.14 52.2199C207.83 52.2199 205.98 51.3199 204.73 49.5099C203.47 47.7099 202.84 45.2199 202.84 42.0399C202.84 38.8599 203.47 36.3299 204.73 34.4299C205.99 32.5299 207.79 31.5899 210.14 31.5899C212.49 31.5899 214.25 32.5299 215.54 34.3999C216.83 36.2699 217.47 38.8199 217.47 42.0499C217.47 45.2799 216.83 47.7399 215.54 49.5399" fill="white"/>
<path d="M266 27.7799C264.48 25.8099 262.39 24.2999 259.73 23.2599C257.08 22.2199 254.07 21.7 250.68 21.7C245.33 21.7 241.16 22.8999 238.17 25.2999C235.18 27.6999 233.43 30.7099 232.93 34.3399L244.61 34.7499C244.89 33.4799 245.53 32.4799 246.55 31.7499C247.57 31.0299 248.92 30.6599 250.59 30.6599C252.14 30.6599 253.37 31.0299 254.29 31.7499C255.21 32.4799 255.67 33.5099 255.67 34.8399V34.9599C255.67 36.1699 254.94 36.9899 253.5 37.4199C252.06 37.8499 249.64 38.2099 246.24 38.5099C243.56 38.7399 241.1 39.2599 238.86 40.1099C236.61 40.9499 234.82 42.2299 233.47 43.9699C232.12 45.6999 231.45 48.0399 231.45 50.9699C231.45 54.9099 232.68 57.8399 235.14 59.7799C237.6 61.7099 240.73 62.6699 244.53 62.6699C250.02 62.6699 253.86 60.5999 256.07 56.4599H256.38V62.0099H268.29V34.9799C268.29 32.17 267.53 29.7799 266 27.8099M255.74 47.8499C255.74 49.7799 255.03 51.3599 253.6 52.5599C252.18 53.7599 250.45 54.3699 248.44 54.3699C246.97 54.3699 245.77 54.0199 244.84 53.3299C243.9 52.6399 243.44 51.6399 243.44 50.3299C243.44 47.7899 245.31 46.2399 249.05 45.6699C250.23 45.4899 251.46 45.2799 252.74 45.0199C254.03 44.7599 255.02 44.4399 255.73 44.0699V47.8499H255.74Z" fill="white"/>
<path d="M328.22 8.94995H315.56V61.9799H328.22V8.94995Z" fill="white"/>
<path d="M357.25 44.81C357.25 47.13 356.61 48.91 355.31 50.16C354.01 51.41 352.42 52.03 350.54 52.03C348.66 52.03 347.08 51.41 345.96 50.17C344.84 48.93 344.27 47.22 344.25 45.07V22.21H331.59V47.56C331.61 50.55 332.19 53.16 333.33 55.4C334.47 57.65 336.06 59.39 338.11 60.64C340.15 61.88 342.54 62.5 345.27 62.5C348.26 62.5 350.81 61.79 352.92 60.36C355.04 58.94 356.53 57.01 357.41 54.57H357.83V61.98H369.89V22.21H357.26V44.81H357.25Z" fill="white"/>
<path d="M400.21 22.2099V29.0199H399.85C399.09 27.1999 397.81 25.5099 396 23.9799C394.2 22.4599 391.73 21.6899 388.59 21.6899C385.82 21.6899 383.24 22.4199 380.82 23.8599C378.4 25.3199 376.45 27.5399 374.97 30.5399C373.49 33.5399 372.74 37.3699 372.74 42.0299C372.74 46.6899 373.46 50.2199 374.91 53.0699C376.35 55.9299 378.27 58.0399 380.68 59.3899C383.09 60.7499 385.74 61.4199 388.64 61.4199C391.54 61.4199 394 60.8099 395.92 59.5899C397.84 58.3799 399.17 56.8499 399.9 55.0199H400.34V62.0099C400.34 64.3899 399.65 66.0799 398.26 67.0899C396.87 68.0799 395.12 68.5899 392.99 68.5899C390.86 68.5899 389.34 68.2399 388.13 67.5399C386.93 66.8399 386.16 65.9599 385.81 64.9099L373.82 65.5799C374.29 68.8899 376.13 71.69 379.34 73.95C382.54 76.22 386.98 77.3599 392.65 77.3599C396.65 77.3599 400.16 76.7699 403.18 75.5899C406.21 74.3999 408.57 72.6799 410.26 70.3999C411.96 68.1299 412.81 65.3599 412.81 62.0999V22.1799H400.2L400.21 22.2099ZM398.44 49.5299C397.16 51.3199 395.35 52.2199 393.04 52.2199C390.73 52.2199 388.89 51.3199 387.63 49.5099C386.37 47.7099 385.74 45.2199 385.74 42.0399C385.74 38.8599 386.37 36.3299 387.63 34.4299C388.89 32.5299 390.69 31.5899 393.04 31.5899C395.39 31.5899 397.15 32.5299 398.44 34.3999C399.73 36.2699 400.37 38.8199 400.37 42.0499C400.37 45.2799 399.73 47.7399 398.44 49.5399" fill="white"/>
<path d="M271.16 27.3499V8.94995H293.07C297.04 8.94995 300.47 9.71993 303.36 11.2699C306.25 12.8099 308.48 14.9599 310.05 17.7199C311.62 20.4699 312.41 23.6699 312.41 27.3199C312.41 30.9699 311.61 34.1799 310 36.9199C308.39 39.6599 306.12 41.7799 303.17 43.2799C300.23 44.7799 296.73 45.5299 292.67 45.5299H283.97V61.9999H271.15V27.3599M283.98 35.4199H290.3C293.18 35.4199 295.38 34.6799 296.88 33.2099C298.38 31.7299 299.13 29.7699 299.13 27.3199C299.13 24.8699 298.38 22.9 296.88 21.45C295.38 20.01 293.18 19.2899 290.3 19.2899H283.98V35.4199Z" fill="white"/>
<mask id="mask2_1_367" style="mask-type:luminance" maskUnits="userSpaceOnUse" x="0" y="39" width="32" height="9">
<path d="M0.0100098 39.4299C0.31001 42.1799 0.940027 44.8299 1.84003 47.3499H31.07V39.4299H0H0.0100098Z" fill="white"/>
</mask>
<g mask="url(#mask2_1_367)">
<path d="M0.00617317 38.5884L-0.222351 47.3154L31.0269 48.1337L31.2555 39.4067L0.00617317 38.5884Z" fill="url(#paint2_linear_1_367)"/>
</g>
<path d="M30.83 62.36L30.6 39.9H13.64L36.42 11L36.81 11.31L14.67 39.4H31.1V39.65L31.33 62.35L30.83 62.36Z" fill="url(#paint3_linear_1_367)"/>
<defs>
<linearGradient id="paint0_linear_1_367" x1="-2.37699" y1="23.002" x2="24.773" y2="23.002" gradientUnits="userSpaceOnUse">
<stop stop-color="white"/>
<stop offset="1" stop-color="white"/>
</linearGradient>
<linearGradient id="paint1_linear_1_367" x1="-7.38027" y1="13.3116" x2="28.2808" y2="18.7939" gradientUnits="userSpaceOnUse">
<stop stop-color="white"/>
<stop offset="1" stop-color="white"/>
</linearGradient>
<linearGradient id="paint2_linear_1_367" x1="34.8524" y1="44.5774" x2="-9.12259" y2="43.4259" gradientUnits="userSpaceOnUse">
<stop stop-color="white"/>
<stop offset="1" stop-color="white"/>
</linearGradient>
<linearGradient id="paint3_linear_1_367" x1="13.64" y1="36.68" x2="36.81" y2="36.68" gradientUnits="userSpaceOnUse">
<stop stop-color="white"/>
<stop offset="1" stop-color="white"/>
</linearGradient>
</defs>
</svg>
