<svg width="413" height="78" viewBox="0 0 413 78" fill="none" xmlns="http://www.w3.org/2000/svg">
<mask id="mask0_1_369" style="mask-type:luminance" maskUnits="userSpaceOnUse" x="0" y="23" width="28" height="9">
<path d="M1.85001 23.46C0.950006 25.98 0.32002 28.63 0.0200195 31.38H20.94L27.17 23.46H1.85001Z" fill="white"/>
</mask>
<g mask="url(#mask0_1_369)">
<path d="M27.16 23.46H0.0100098V31.38H27.16V23.46Z" fill="url(#paint0_linear_1_369)"/>
</g>
<path d="M70.26 35.35C70.26 36.69 70.18 38.01 70.04 39.31C69.73 42.06 69.11 44.71 68.21 47.23C67.2 50.05 65.84 52.71 64.18 55.15C57.84 64.47 47.15 70.59 35.03 70.59C22.91 70.59 12.22 64.47 5.88 55.15H31.08V62.24L36.66 55.15L42.89 47.23L49.12 39.31L55.35 31.39H38.98V8.45999L33.4 15.55H5.89001C12.23 6.22999 22.92 0.119995 35.04 0.119995C47.16 0.119995 57.85 6.23999 64.19 15.55C65.85 17.99 67.21 20.65 68.22 23.47C69.12 25.99 69.75 28.64 70.05 31.39C70.2 32.69 70.27 34.01 70.27 35.35" fill="#07C355"/>
<mask id="mask1_1_369" style="mask-type:luminance" maskUnits="userSpaceOnUse" x="0" y="23" width="28" height="9">
<path d="M1.85001 23.46C0.950006 25.98 0.32002 28.63 0.0200195 31.38H20.94L27.17 23.46H1.85001Z" fill="white"/>
</mask>
<g mask="url(#mask1_1_369)">
<path d="M0.670765 19.4229L-1.14505 31.2341L26.5694 35.4948L28.3852 23.6836L0.670765 19.4229Z" fill="url(#paint1_linear_1_369)"/>
</g>
<path d="M130.44 8.83008L116.97 41.6601H116.36L102.89 8.83008H87.02V61.8601H99.5V29.1101H99.95L112.68 61.5201H120.66L133.39 29.2901H133.83V61.8601H146.31V8.83008H130.44Z" fill="white"/>
<path d="M187.7 45.0301V41.8701C187.7 37.5001 186.88 33.8101 185.24 30.7901C183.6 27.7701 181.33 25.4801 178.43 23.9101C175.53 22.3501 172.2 21.5701 168.44 21.5701C164.43 21.5701 160.95 22.4301 158.01 24.1501C155.06 25.8701 152.77 28.2701 151.14 31.3501C149.52 34.4301 148.71 38.0301 148.71 42.1301C148.71 48.4901 150.5 53.5101 154.09 57.1401C157.67 60.7901 162.58 62.6001 168.83 62.6001C174.05 62.6001 178.29 61.4401 181.57 59.1001C184.85 56.7601 186.86 53.6401 187.58 49.7401L175.95 49.4101C175.47 50.7201 174.61 51.7301 173.38 52.4201C172.16 53.1201 170.71 53.4701 169.06 53.4701C166.63 53.4701 164.71 52.7301 163.31 51.2501C161.9 49.7601 161.19 47.8001 161.19 45.3701V45.0401H187.71L187.7 45.0301ZM163.42 32.7001C164.83 31.3701 166.58 30.7101 168.69 30.7101C170.8 30.7101 172.49 31.3601 173.85 32.6701C175.2 33.9701 175.89 35.6401 175.92 37.6801H161.18C161.27 35.6901 162.02 34.0301 163.42 32.7001Z" fill="white"/>
<path d="M217.31 22.0901V28.9001H216.95C216.19 27.0801 214.91 25.3901 213.1 23.8601C211.29 22.3401 208.83 21.5701 205.68 21.5701C202.92 21.5701 200.34 22.3001 197.92 23.7401C195.5 25.2001 193.55 27.4201 192.07 30.4201C190.59 33.4201 189.84 37.2501 189.84 41.9101C189.84 46.5701 190.56 50.1001 192 52.9501C193.45 55.8101 195.37 57.9201 197.78 59.2701C200.18 60.6301 202.84 61.3 205.74 61.3C208.64 61.3 211.09 60.6901 213.01 59.4701C214.92 58.2601 216.25 56.7301 217 54.9001H217.44V61.8901C217.44 64.2701 216.75 65.9601 215.35 66.9701C213.96 67.9601 212.21 68.4701 210.09 68.4701C207.97 68.4701 206.44 68.1201 205.23 67.4201C204.03 66.7201 203.26 65.8401 202.91 64.7901L190.92 65.4601C191.39 68.7701 193.22 71.5701 196.43 73.8301C199.64 76.1001 204.08 77.2401 209.74 77.2401C213.75 77.2401 217.26 76.6501 220.28 75.4701C223.3 74.2801 225.66 72.5601 227.37 70.2801C229.07 68.0101 229.92 65.2401 229.92 61.9801V22.0601H217.31V22.0901ZM215.54 49.4101C214.25 51.2001 212.45 52.1001 210.14 52.1001C207.83 52.1001 205.98 51.2001 204.73 49.3901C203.47 47.5901 202.84 45.1001 202.84 41.9201C202.84 38.7401 203.47 36.2101 204.73 34.3101C205.99 32.4101 207.79 31.4701 210.14 31.4701C212.49 31.4701 214.25 32.4101 215.54 34.2801C216.83 36.1501 217.47 38.7001 217.47 41.9301C217.47 45.1601 216.83 47.6201 215.54 49.4201" fill="white"/>
<path d="M266 27.6601C264.48 25.6901 262.39 24.1801 259.73 23.1401C257.08 22.1001 254.07 21.5801 250.68 21.5801C245.33 21.5801 241.16 22.7801 238.17 25.1801C235.18 27.5801 233.43 30.5901 232.93 34.2201L244.61 34.6301C244.89 33.3601 245.53 32.3601 246.55 31.6301C247.57 30.9101 248.92 30.5401 250.59 30.5401C252.14 30.5401 253.37 30.9101 254.29 31.6301C255.21 32.3601 255.67 33.3901 255.67 34.7201V34.8401C255.67 36.0501 254.94 36.87 253.5 37.3C252.06 37.73 249.64 38.0901 246.24 38.3901C243.56 38.6201 241.1 39.1401 238.86 39.9901C236.61 40.8301 234.82 42.1101 233.47 43.8501C232.12 45.5801 231.45 47.9201 231.45 50.8501C231.45 54.7901 232.68 57.7201 235.14 59.6601C237.6 61.5901 240.73 62.55 244.53 62.55C250.02 62.55 253.86 60.4801 256.07 56.3401H256.38V61.8901H268.29V34.8601C268.29 32.0501 267.53 29.6601 266 27.6901M255.74 47.7301C255.74 49.6601 255.03 51.2401 253.6 52.4401C252.18 53.6401 250.45 54.2501 248.44 54.2501C246.97 54.2501 245.77 53.9001 244.84 53.2101C243.9 52.5201 243.44 51.5201 243.44 50.2101C243.44 47.6701 245.31 46.12 249.05 45.55C250.23 45.37 251.46 45.1601 252.74 44.9001C254.03 44.6401 255.02 44.3201 255.73 43.9501V47.7301H255.74Z" fill="white"/>
<path d="M328.22 8.83008H315.56V61.8601H328.22V8.83008Z" fill="#07C355"/>
<path d="M357.25 44.69C357.25 47.01 356.61 48.79 355.31 50.04C354.01 51.29 352.42 51.91 350.54 51.91C348.66 51.91 347.08 51.29 345.96 50.05C344.84 48.81 344.27 47.1 344.25 44.95V22.09H331.59V47.44C331.61 50.43 332.19 53.04 333.33 55.28C334.47 57.53 336.06 59.27 338.11 60.52C340.15 61.76 342.54 62.38 345.27 62.38C348.26 62.38 350.81 61.67 352.92 60.24C355.04 58.82 356.53 56.89 357.41 54.45H357.83V61.86H369.89V22.09H357.26V44.69H357.25Z" fill="#07C355"/>
<path d="M400.21 22.0901V28.9001H399.85C399.09 27.0801 397.81 25.3901 396 23.8601C394.2 22.3401 391.73 21.5701 388.59 21.5701C385.82 21.5701 383.24 22.3001 380.82 23.7401C378.4 25.2001 376.45 27.4201 374.97 30.4201C373.49 33.4201 372.74 37.2501 372.74 41.9101C372.74 46.5701 373.46 50.1001 374.91 52.9501C376.35 55.8101 378.27 57.9201 380.68 59.2701C383.09 60.6301 385.74 61.3 388.64 61.3C391.54 61.3 394 60.6901 395.92 59.4701C397.84 58.2601 399.17 56.7301 399.9 54.9001H400.34V61.8901C400.34 64.2701 399.65 65.9601 398.26 66.9701C396.87 67.9601 395.12 68.4701 392.99 68.4701C390.86 68.4701 389.34 68.1201 388.13 67.4201C386.93 66.7201 386.16 65.8401 385.81 64.7901L373.82 65.4601C374.29 68.7701 376.13 71.5701 379.34 73.8301C382.54 76.1001 386.98 77.2401 392.65 77.2401C396.65 77.2401 400.16 76.6501 403.18 75.4701C406.21 74.2801 408.57 72.5601 410.26 70.2801C411.96 68.0101 412.81 65.2401 412.81 61.9801V22.0601H400.2L400.21 22.0901ZM398.44 49.4101C397.16 51.2001 395.35 52.1001 393.04 52.1001C390.73 52.1001 388.89 51.2001 387.63 49.3901C386.37 47.5901 385.74 45.1001 385.74 41.9201C385.74 38.7401 386.37 36.2101 387.63 34.3101C388.89 32.4101 390.69 31.4701 393.04 31.4701C395.39 31.4701 397.15 32.4101 398.44 34.2801C399.73 36.1501 400.37 38.7001 400.37 41.9301C400.37 45.1601 399.73 47.6201 398.44 49.4201" fill="#07C355"/>
<path d="M271.16 61.8701V8.83008H293.07C297.04 8.83008 300.47 9.60005 303.36 11.1501C306.25 12.6901 308.48 14.8401 310.05 17.6001C311.62 20.3501 312.41 23.5501 312.41 27.2001C312.41 30.8501 311.61 34.06 310 36.8C308.39 39.54 306.12 41.6601 303.17 43.1601C300.23 44.6601 296.73 45.4101 292.67 45.4101H283.97V61.8801H271.15L271.16 61.8701ZM283.98 35.3H290.3C293.18 35.3 295.38 34.5601 296.88 33.0901C298.38 31.6101 299.13 29.6501 299.13 27.2001C299.13 24.7501 298.38 22.7801 296.88 21.3301C295.38 19.8901 293.18 19.1701 290.3 19.1701H283.98V35.3Z" fill="#07C355"/>
<mask id="mask2_1_369" style="mask-type:luminance" maskUnits="userSpaceOnUse" x="0" y="39" width="32" height="9">
<path d="M0.0100098 39.3101C0.31001 42.0601 0.940027 44.7101 1.84003 47.2301H31.07V39.3101H0H0.0100098Z" fill="white"/>
</mask>
<g mask="url(#mask2_1_369)">
<path d="M0.00617317 38.4686L-0.222351 47.1956L31.0269 48.0138L31.2555 39.2869L0.00617317 38.4686Z" fill="url(#paint2_linear_1_369)"/>
</g>
<path d="M30.83 62.24L30.6 39.78H13.64L36.42 10.88L36.81 11.19L14.67 39.28H31.1V39.53L31.33 62.23L30.83 62.24Z" fill="url(#paint3_linear_1_369)"/>
<defs>
<linearGradient id="paint0_linear_1_369" x1="-0.22649" y1="22.882" x2="26.9235" y2="22.882" gradientUnits="userSpaceOnUse">
<stop stop-color="#ABDB35"/>
<stop offset="1" stop-color="#ABDB35"/>
</linearGradient>
<linearGradient id="paint1_linear_1_369" x1="-2.34286" y1="13.7041" x2="33.3182" y2="19.1865" gradientUnits="userSpaceOnUse">
<stop stop-color="#07C355"/>
<stop offset="1" stop-color="#07C355"/>
</linearGradient>
<linearGradient id="paint2_linear_1_369" x1="34.393" y1="44.5765" x2="-9.58196" y2="43.425" gradientUnits="userSpaceOnUse">
<stop stop-color="#07C355"/>
<stop offset="1" stop-color="#07C355"/>
</linearGradient>
<linearGradient id="paint3_linear_1_369" x1="13.64" y1="36.56" x2="36.81" y2="36.56" gradientUnits="userSpaceOnUse">
<stop stop-color="#07C355"/>
<stop offset="1" stop-color="#07C355"/>
</linearGradient>
</defs>
</svg>
