<svg width="16" height="16" viewBox="0 0 16 16" fill="none" xmlns="http://www.w3.org/2000/svg">
<path d="M10.667 4.20898C10.7884 4.20907 10.9053 4.2569 10.9912 4.34277C11.0468 4.3984 11.0843 4.46769 11.1055 4.54199H11.125V13.5596L13.0088 11.6758L13.0977 11.5879L13.1855 11.6758L13.6582 12.1475L13.7461 12.2363L10.9912 14.9912L10.7549 15.2266L10.667 15.3145L10.5781 15.2266L10.4307 15.0791V15.0801L10.3418 14.9912L7.67578 12.3242L7.58691 12.2363L8.14746 11.6758L8.23633 11.5879L10.208 13.5596V4.54199H10.2275C10.2487 4.46758 10.2871 4.39845 10.3428 4.34277C10.4287 4.25692 10.5455 4.20898 10.667 4.20898ZM5.42188 0.773438L5.6582 1.00879L8.32422 3.67578L8.41309 3.76465L8.32422 3.85254L7.76367 4.41309L7.67578 4.32422L5.79199 2.44043V11.459H5.77246C5.75126 11.5333 5.71282 11.6026 5.65723 11.6582C5.5713 11.7439 5.45441 11.792 5.33301 11.792C5.21157 11.7919 5.09467 11.7441 5.00879 11.6582C4.95321 11.6026 4.91574 11.5332 4.89453 11.459H4.875V2.44043L2.90234 4.41309L2.81445 4.32422L2.3418 3.85254L2.25391 3.76465L2.3418 3.67578L5.00879 1.00879L5.24512 0.773438L5.33301 0.685547L5.42188 0.773438Z" fill="#606060" stroke="#606060" stroke-width="0.25"/>
</svg>
