<svg width="32" height="32" viewBox="0 0 32 32" fill="none" xmlns="http://www.w3.org/2000/svg">
<rect width="32" height="32" rx="16" fill="#B2ECCA"/>
<path fill-rule="evenodd" clip-rule="evenodd" d="M10.1667 14.0003C10.1667 12.4532 10.7813 10.9695 11.8752 9.87554C12.9692 8.78157 14.4529 8.16699 16 8.16699C17.5471 8.16699 19.0308 8.78157 20.1248 9.87554C21.2188 10.9695 21.8333 12.4532 21.8333 14.0003V17.137L23.3517 20.1737C23.4216 20.3134 23.4546 20.4687 23.4476 20.6249C23.4405 20.781 23.3937 20.9327 23.3116 21.0656C23.2294 21.1985 23.1146 21.3083 22.9781 21.3843C22.8416 21.4604 22.6879 21.5003 22.5317 21.5003H19.2283C19.043 22.2155 18.6254 22.8489 18.0411 23.3011C17.4568 23.7533 16.7388 23.9986 16 23.9986C15.2612 23.9986 14.5433 23.7533 13.959 23.3011C13.3747 22.8489 12.957 22.2155 12.7717 21.5003H9.46835C9.31208 21.5003 9.1584 21.4604 9.0219 21.3843C8.88541 21.3083 8.77063 21.1985 8.68847 21.0656C8.60631 20.9327 8.55949 20.781 8.55247 20.6249C8.54545 20.4687 8.57845 20.3134 8.64835 20.1737L10.1667 17.137V14.0003ZM14.5567 21.5003C14.703 21.7537 14.9134 21.9641 15.1667 22.1103C15.4201 22.2566 15.7075 22.3336 16 22.3336C16.2926 22.3336 16.58 22.2566 16.8333 22.1103C17.0867 21.9641 17.2971 21.7537 17.4433 21.5003H14.5567ZM16 9.83366C14.8949 9.83366 13.8351 10.2726 13.0537 11.054C12.2723 11.8354 11.8333 12.8953 11.8333 14.0003V17.137C11.8333 17.3956 11.7731 17.6507 11.6575 17.882L10.6825 19.8337H21.3183L20.3433 17.882C20.2274 17.6507 20.167 17.3957 20.1667 17.137V14.0003C20.1667 12.8953 19.7277 11.8354 18.9463 11.054C18.1649 10.2726 17.1051 9.83366 16 9.83366Z" fill="#07C355"/>
</svg>
