<svg width="31" height="29" viewBox="0 0 31 29" fill="none" xmlns="http://www.w3.org/2000/svg">
<path d="M2.95451 25.5785C2.65491 25.2746 2.46102 24.8823 2.40146 24.4597C2.34189 24.037 2.41982 23.6064 2.62373 23.2313L7.35751 14.2913L2.62723 5.35318C2.42367 4.97813 2.34602 4.54755 2.40574 4.12493C2.46547 3.7023 2.65939 3.30999 2.95893 3.00585L2.98572 2.97906C3.27896 2.6803 3.65884 2.4815 4.07141 2.4109C4.48397 2.34029 4.90824 2.40148 5.28396 2.58576L26.811 12.4643C26.8175 12.4671 26.8238 12.4704 26.8297 12.4742C27.1696 12.6399 27.456 12.8976 27.6565 13.2182C27.8571 13.5387 27.9636 13.9091 27.964 14.2872C27.9644 14.6654 27.8586 15.0361 27.6588 15.3572C27.4589 15.6783 27.173 15.9369 26.8335 16.1035L26.8147 16.1134L5.27937 25.9977C4.89773 26.185 4.46624 26.2453 4.04797 26.1699C3.62969 26.0945 3.24655 25.8872 2.95451 25.5785Z" fill="#07C355" stroke="white" stroke-width="4.76436"/>
</svg>
