<svg width="48" height="48" viewBox="0 0 48 48" fill="none" xmlns="http://www.w3.org/2000/svg">
<rect width="48" height="48" rx="8" fill="#07C355" fill-opacity="0.1"/>
<path d="M17 20V25L15 28V31H33V28L31 25V20C31 19.0807 30.8189 18.1705 30.4672 17.3212C30.1154 16.4719 29.5998 15.7003 28.9497 15.0503C28.2997 14.4002 27.5281 13.8846 26.6788 13.5328C25.8295 13.1811 24.9193 13 24 13C23.0807 13 22.1705 13.1811 21.3212 13.5328C20.4719 13.8846 19.7003 14.4002 19.0503 15.0503C18.4002 15.7003 17.8846 16.4719 17.5328 17.3212C17.1811 18.1705 17 19.0807 17 20ZM20.5 31H27.5C27.5 31.4596 27.4095 31.9148 27.2336 32.3394C27.0577 32.764 26.7999 33.1499 26.4749 33.4749C26.1499 33.7999 25.764 34.0577 25.3394 34.2336C24.9148 34.4095 24.4596 34.5 24 34.5C23.5404 34.5 23.0852 34.4095 22.6606 34.2336C22.236 34.0577 21.8501 33.7999 21.5251 33.4749C21.2001 33.1499 20.9423 32.764 20.7664 32.3394C20.5905 31.9148 20.5 31.4596 20.5 31Z" stroke="#07C355" stroke-width="2" stroke-linecap="square"/>
</svg>
