<svg width="40" height="40" viewBox="0 0 40 40" fill="none" xmlns="http://www.w3.org/2000/svg">
<rect width="40" height="40" rx="20" fill="#E6F9EE"/>
<path d="M17.7811 16.8633L19.9461 12.5033C20.0091 12.3771 20.106 12.271 20.226 12.1968C20.3459 12.1226 20.4842 12.0833 20.6252 12.0833C20.7663 12.0833 20.9045 12.1226 21.0245 12.1968C21.1444 12.271 21.2414 12.3771 21.3044 12.5033L23.4694 16.8633L28.3094 17.5666C28.449 17.586 28.5803 17.6442 28.6884 17.7346C28.7965 17.825 28.877 17.944 28.9208 18.078C28.9645 18.212 28.9696 18.3556 28.9356 18.4924C28.9016 18.6292 28.8299 18.7536 28.7286 18.8516L25.2269 22.2433L26.0536 27.0349C26.1594 27.6499 25.5094 28.1183 24.9536 27.8283L20.6252 25.5649L16.2961 27.8283C15.7411 28.1191 15.0911 27.6499 15.1969 27.0341L16.0236 22.2424L12.5219 18.8508C12.421 18.7527 12.3497 18.6284 12.316 18.4919C12.2823 18.3553 12.2876 18.2121 12.3313 18.0784C12.3749 17.9447 12.4552 17.8259 12.563 17.7356C12.6708 17.6453 12.8018 17.587 12.9411 17.5674L17.7811 16.8633Z" stroke="#07C355" stroke-width="1.25" stroke-linecap="round" stroke-linejoin="round"/>
</svg>
