<svg width="38" height="27" viewBox="0 0 38 27" fill="none" xmlns="http://www.w3.org/2000/svg">
<path d="M29.9924 24.4271C31.4359 22.9836 32.581 21.2698 33.3622 19.3838C34.1435 17.4977 34.5456 15.4762 34.5456 13.4347C34.5456 11.3933 34.1435 9.37177 33.3622 7.48569C32.581 5.59962 31.4359 3.88589 29.9924 2.44236L32.4347 0C39.8551 7.42036 39.8551 19.4491 32.4347 26.8695L29.9924 24.4271ZM8.00764 2.44236C6.56409 3.88589 5.419 5.59962 4.63776 7.48569C3.85651 9.37177 3.45441 11.3933 3.45441 13.4347C3.45441 15.4762 3.85651 17.4977 4.63776 19.3838C5.419 21.2698 6.56409 22.9836 8.00764 24.4271L5.56527 26.8695C-1.85509 19.4508 -1.85509 7.42036 5.56527 0L8.00764 2.44236ZM25.1076 19.5424C25.9098 18.7404 26.5462 17.7882 26.9804 16.7402C27.4145 15.6923 27.638 14.5691 27.638 13.4347C27.638 12.3004 27.4145 11.1772 26.9804 10.1292C26.5462 9.08125 25.9098 8.12908 25.1076 7.32709L27.55 4.88473C28.6729 6.00749 29.5636 7.34043 30.1713 8.80745C30.779 10.2745 31.0918 11.8468 31.0918 13.4347C31.0918 15.0226 30.779 16.595 30.1713 18.062C29.5636 19.529 28.6729 20.862 27.55 21.9847L25.1076 19.5424ZM12.8924 7.32709C12.0902 8.12908 11.4538 9.08125 11.0196 10.1292C10.5855 11.1772 10.362 12.3004 10.362 13.4347C10.362 14.5691 10.5855 15.6923 11.0196 16.7402C11.4538 17.7882 12.0902 18.7404 12.8924 19.5424L10.45 21.9847C9.32712 20.862 8.4364 19.529 7.8287 18.062C7.221 16.595 6.90822 15.0226 6.90822 13.4347C6.90822 11.8468 7.221 10.2745 7.8287 8.80745C8.4364 7.34043 9.32712 6.00749 10.45 4.88473L12.8924 7.32709ZM19 16.8893C19.9162 16.8893 20.7949 16.5253 21.4427 15.8775C22.0906 15.2296 22.4545 14.3509 22.4545 13.4347C22.4545 12.5185 22.0906 11.6398 21.4427 10.992C20.7949 10.3441 19.9162 9.98018 19 9.98018C18.0838 9.98018 17.2051 10.3441 16.5573 10.992C15.9094 11.6398 15.5455 12.5185 15.5455 13.4347C15.5455 14.3509 15.9094 15.2296 16.5573 15.8775C17.2051 16.5253 18.0838 16.8893 19 16.8893Z" fill="black"/>
</svg>
