<svg width="40" height="40" viewBox="0 0 40 40" fill="none" xmlns="http://www.w3.org/2000/svg">
<rect width="40" height="40" rx="20" fill="#E6F9EE"/>
<path d="M18.773 14.1357C18.6093 14.1357 18.4523 14.2008 18.3366 14.3165C18.2208 14.4323 18.1558 14.5893 18.1558 14.753C18.1558 14.9167 18.2208 15.0737 18.3366 15.1895C18.4523 15.3053 18.6093 15.3703 18.773 15.3703H22.4767C22.6405 15.3703 22.7975 15.3053 22.9132 15.1895C23.029 15.0737 23.094 14.9167 23.094 14.753C23.094 14.5893 23.029 14.4323 22.9132 14.3165C22.7975 14.2008 22.6405 14.1357 22.4767 14.1357H18.773ZM17.5385 20.9259C17.5385 21.2533 17.4084 21.5673 17.1769 21.7988C16.9453 22.0304 16.6313 22.1604 16.3039 22.1604C15.9765 22.1604 15.6625 22.0304 15.4309 21.7988C15.1994 21.5673 15.0693 21.2533 15.0693 20.9259C15.0693 20.5984 15.1994 20.2844 15.4309 20.0529C15.6625 19.8214 15.9765 19.6913 16.3039 19.6913C16.6313 19.6913 16.9453 19.8214 17.1769 20.0529C17.4084 20.2844 17.5385 20.5984 17.5385 20.9259ZM17.5385 25.2469C17.5385 25.5743 17.4084 25.8883 17.1769 26.1198C16.9453 26.3514 16.6313 26.4814 16.3039 26.4814C15.9765 26.4814 15.6625 26.3514 15.4309 26.1198C15.1994 25.8883 15.0693 25.5743 15.0693 25.2469C15.0693 24.9194 15.1994 24.6054 15.4309 24.3739C15.6625 24.1424 15.9765 24.0123 16.3039 24.0123C16.6313 24.0123 16.9453 24.1424 17.1769 24.3739C17.4084 24.6054 17.5385 24.9194 17.5385 25.2469ZM20.6249 22.1604C20.9523 22.1604 21.2663 22.0304 21.4979 21.7988C21.7294 21.5673 21.8595 21.2533 21.8595 20.9259C21.8595 20.5984 21.7294 20.2844 21.4979 20.0529C21.2663 19.8214 20.9523 19.6913 20.6249 19.6913C20.2975 19.6913 19.9834 19.8214 19.7519 20.0529C19.5204 20.2844 19.3903 20.5984 19.3903 20.9259C19.3903 21.2533 19.5204 21.5673 19.7519 21.7988C19.9834 22.0304 20.2975 22.1604 20.6249 22.1604ZM21.8595 25.2469C21.8595 25.5743 21.7294 25.8883 21.4979 26.1198C21.2663 26.3514 20.9523 26.4814 20.6249 26.4814C20.2975 26.4814 19.9834 26.3514 19.7519 26.1198C19.5204 25.8883 19.3903 25.5743 19.3903 25.2469C19.3903 24.9194 19.5204 24.6054 19.7519 24.3739C19.9834 24.1424 20.2975 24.0123 20.6249 24.0123C20.9523 24.0123 21.2663 24.1424 21.4979 24.3739C21.7294 24.6054 21.8595 24.9194 21.8595 25.2469ZM24.9459 22.1604C25.2733 22.1604 25.5873 22.0304 25.8189 21.7988C26.0504 21.5673 26.1804 21.2533 26.1804 20.9259C26.1804 20.5984 26.0504 20.2844 25.8189 20.0529C25.5873 19.8214 25.2733 19.6913 24.9459 19.6913C24.6185 19.6913 24.3044 19.8214 24.0729 20.0529C23.8414 20.2844 23.7113 20.5984 23.7113 20.9259C23.7113 21.2533 23.8414 21.5673 24.0729 21.7988C24.3044 22.0304 24.6185 22.1604 24.9459 22.1604Z" fill="#07C355"/>
<path fill-rule="evenodd" clip-rule="evenodd" d="M15.6867 9.50586C15.8504 9.50586 16.0074 9.57089 16.1232 9.68666C16.239 9.80242 16.304 9.95943 16.304 10.1231V11.3577H24.946V10.1231C24.946 9.95943 25.011 9.80242 25.1268 9.68666C25.2425 9.57089 25.3995 9.50586 25.5633 9.50586C25.727 9.50586 25.884 9.57089 25.9997 9.68666C26.1155 9.80242 26.1805 9.95943 26.1805 10.1231V11.3614C26.4826 11.3639 26.7517 11.3746 26.9879 11.3935C27.4386 11.4306 27.8336 11.5083 28.1991 11.6935C28.7796 11.9897 29.2516 12.462 29.5472 13.0429C29.7336 13.4083 29.8114 13.8034 29.8484 14.2528C29.8842 14.691 29.8842 15.2306 29.8842 15.8997V25.3343C29.8842 26.0034 29.8842 26.5441 29.8484 26.9799C29.8114 27.4305 29.7336 27.8256 29.5472 28.191C29.2514 28.7714 28.7795 29.2433 28.1991 29.5392C27.8336 29.7256 27.4386 29.8034 26.9892 29.8404C26.5509 29.8762 26.0114 29.8762 25.3435 29.8762H15.9077C15.2386 29.8762 14.6978 29.8762 14.262 29.8404C13.8114 29.8034 13.4163 29.7256 13.0509 29.5392C12.4701 29.2436 11.9977 28.7716 11.7015 28.191C11.5163 27.8256 11.4386 27.4306 11.4015 26.9812C11.3657 26.5429 11.3657 26.0022 11.3657 25.333V15.9009C11.3657 15.3145 11.3657 14.8293 11.3904 14.4231L11.4015 14.2552C11.4386 13.8046 11.5163 13.4096 11.7015 13.0441C11.9975 12.4631 12.4699 11.9907 13.0509 11.6947C13.4163 11.5096 13.8114 11.4318 14.2608 11.3947C14.4986 11.3758 14.7682 11.3651 15.0694 11.3626V10.1231C15.0694 9.95943 15.1345 9.80242 15.2502 9.68666C15.366 9.57089 15.523 9.50586 15.6867 9.50586ZM15.0694 13.2096V12.596C14.8334 12.5979 14.5975 12.6074 14.362 12.6244C13.9892 12.654 13.7744 12.7108 13.6114 12.7935C13.2626 12.9711 12.9791 13.2546 12.8015 13.6034C12.7188 13.7664 12.662 13.9812 12.6324 14.354C12.6003 14.7355 12.6003 15.2244 12.6003 15.9256V16.6046H28.6497V15.9256C28.6497 15.2244 28.6497 14.7355 28.6176 14.354C28.5879 13.9812 28.5312 13.7664 28.4484 13.6034C28.2708 13.2546 27.9873 12.9711 27.6386 12.7935C27.4756 12.7108 27.2608 12.654 26.8879 12.6244C26.6525 12.6074 26.4166 12.5979 26.1805 12.596V13.2096C26.1805 13.3733 26.1155 13.5303 25.9997 13.646C25.884 13.7618 25.727 13.8268 25.5633 13.8268C25.3995 13.8268 25.2425 13.7618 25.1268 13.646C25.011 13.5303 24.946 13.3733 24.946 13.2096V12.5923H16.304V13.2096C16.304 13.3733 16.239 13.5303 16.1232 13.646C16.0074 13.7618 15.8504 13.8268 15.6867 13.8268C15.523 13.8268 15.366 13.7618 15.2502 13.646C15.1345 13.5303 15.0694 13.3733 15.0694 13.2096ZM28.6497 17.8392H12.6003V25.3083C12.6003 26.0096 12.6003 26.4997 12.6324 26.8799C12.662 27.2528 12.7188 27.4676 12.8015 27.6306C12.9791 27.9793 13.2626 28.2628 13.6114 28.4404C13.7744 28.5231 13.9892 28.5799 14.362 28.6096C14.7435 28.6417 15.2324 28.6417 15.9336 28.6417H25.3163C26.0176 28.6417 26.5077 28.6417 26.8879 28.6096C27.2608 28.5799 27.4756 28.5231 27.6386 28.4404C27.9873 28.2628 28.2708 27.9793 28.4484 27.6306C28.5312 27.4676 28.5879 27.2528 28.6176 26.8799C28.6497 26.4997 28.6497 26.0096 28.6497 25.3083V17.8392Z" fill="#07C355"/>
</svg>
