<svg width="40" height="40" viewBox="0 0 40 40" fill="none" xmlns="http://www.w3.org/2000/svg">
<rect width="40" height="40" rx="20" fill="#E6F9EE"/>
<path d="M26.6247 19.9999C25.8479 19.3487 24.8603 19.0031 23.8469 19.0277H17.333C17.036 19.0352 16.7406 18.9827 16.4644 18.8733C16.1881 18.7639 15.9368 18.6 15.7254 18.3912C15.5141 18.1824 15.347 17.9331 15.2342 17.6583C15.1215 17.3834 15.0653 17.0886 15.0692 16.7916C15.0619 16.6759 15.0619 16.56 15.0692 16.4443C15.1567 15.9135 15.4351 15.4329 15.8519 15.0928C16.2688 14.7527 16.7954 14.5764 17.333 14.5971H23.7497C24.2731 14.5967 24.7797 14.7821 25.1791 15.1204C25.5785 15.4588 25.8447 15.928 25.9303 16.4443H28.0136C27.9264 15.3734 27.4394 14.3745 26.6493 13.6463C25.8593 12.918 24.8242 12.5137 23.7497 12.5138H21.5553V9.31934H19.8192V12.5138H17.333C16.2586 12.5137 15.2234 12.918 14.4334 13.6463C13.6434 14.3745 13.1564 15.3734 13.0692 16.4443C13.0619 16.56 13.0619 16.6759 13.0692 16.7916C13.0692 17.3515 13.1794 17.906 13.3937 18.4233C13.608 18.9406 13.9221 19.4106 14.318 19.8066C15.1176 20.6062 16.2022 21.0554 17.333 21.0554H23.9164C24.211 21.048 24.5042 21.0997 24.7785 21.2073C25.0529 21.315 25.303 21.4765 25.5139 21.6823C25.7249 21.8881 25.8926 22.134 26.007 22.4057C26.1214 22.6773 26.1804 22.969 26.1803 23.2638C26.1937 23.4209 26.1937 23.5789 26.1803 23.736C26.07 24.2247 25.7968 24.6614 25.4056 24.9743C25.0144 25.2873 24.5285 25.4579 24.0275 25.4582H17.4997C16.9987 25.4579 16.5128 25.2873 16.1216 24.9743C15.7304 24.6614 15.4572 24.2247 15.3469 23.736H13.2497C13.3691 24.7796 13.8682 25.7427 14.652 26.442C15.4357 27.1412 16.4494 27.5277 17.4997 27.5277H19.8192V30.6804H21.5553V27.5277H23.9164C24.9667 27.5277 25.9804 27.1412 26.7641 26.442C27.5479 25.7427 28.047 24.7796 28.1664 23.736V23.2638C28.1647 22.6399 28.0257 22.0241 27.7593 21.46C27.4928 20.8959 27.1055 20.3974 26.6247 19.9999Z" fill="#07C355"/>
</svg>
