<svg width="40" height="40" viewBox="0 0 40 40" fill="none" xmlns="http://www.w3.org/2000/svg">
<rect width="40" height="40" rx="20" fill="#E6F9EE"/>
<path d="M19.7334 21.8512L14.2288 21.2105C13.9029 21.1759 13.6939 21.0031 13.602 20.692C13.51 20.3808 13.585 20.1179 13.827 19.9031L22.8853 11.7734C22.9267 11.7315 22.9745 11.7003 23.0288 11.6799C23.0831 11.6589 23.1615 11.6484 23.264 11.6484C23.4307 11.6484 23.5621 11.7204 23.6584 11.8642C23.7547 12.008 23.7557 12.1592 23.6612 12.3179L20.214 18.1651L25.7538 18.8058C26.0797 18.8404 26.2918 19.0102 26.3899 19.3151C26.4881 19.62 26.4158 19.8802 26.1733 20.0957L17.1149 28.2438C17.0736 28.2852 17.0257 28.3133 16.9714 28.3281C16.9171 28.3429 16.8387 28.3503 16.7362 28.3503C16.5696 28.3503 16.4439 28.2787 16.3594 28.1355C16.2748 27.9923 16.2739 27.8469 16.3566 27.6994L19.7334 21.8512Z" fill="#07C355"/>
</svg>
