<svg width="40" height="40" viewBox="0 0 40 40" fill="none" xmlns="http://www.w3.org/2000/svg">
<rect width="40" height="40" rx="20" fill="#E6F9EE"/>
<path d="M20.0001 29.7218C14.6389 29.7218 10.2778 25.3607 10.2778 19.9996C10.2778 14.6385 14.6389 10.2773 20.0001 10.2773C25.3612 10.2773 29.7223 14.6385 29.7223 19.9996C29.7223 25.3607 25.3612 29.7218 20.0001 29.7218ZM20.0001 11.6662C15.4028 11.6662 11.6667 15.4023 11.6667 19.9996C11.6667 24.5968 15.4028 28.3329 20.0001 28.3329C24.5973 28.3329 28.3334 24.5968 28.3334 19.9996C28.3334 15.4023 24.5973 11.6662 20.0001 11.6662Z" fill="#07C355"/>
<path d="M22.7778 23.4721C22.6528 23.4721 22.5278 23.4443 22.4167 23.3749L18.9444 21.2916C18.8421 21.2292 18.7576 21.1415 18.6991 21.0368C18.6407 20.9322 18.6104 20.8142 18.6111 20.6943V15.1388C18.6111 14.7499 18.9167 14.4443 19.3055 14.4443C19.6944 14.4443 20 14.7499 20 15.1388V20.3054L23.1389 22.1804C23.2682 22.2597 23.3681 22.3789 23.4235 22.5201C23.4789 22.6612 23.4868 22.8166 23.446 22.9626C23.4052 23.1087 23.3179 23.2374 23.1973 23.3293C23.0767 23.4213 22.9294 23.4714 22.7778 23.4721Z" fill="#07C355"/>
</svg>
